M48
;Layer_Color=9474304
;FILE_FORMAT=2:5
INCH,TZ
;TYPE=PLATED
T1F00S00C0.01181
T2F00S00C0.01200
T4F00S00C0.03000
T5F00S00C0.03543
T6F00S00C0.03937
T7F00S00C0.06000
%
T01
X82563Y211063
Y215000
X86500
Y211063
T02
X94072Y19642
X105500Y22000
X124000
X160000Y21000
X150000Y44000
Y61500
X107256Y60744
X101744Y60500
X93000Y59500
X74756Y64500
X73500Y69500
X79244Y36744
X94000Y35500
X97000Y121500
X81000
X109500Y128000
X123500Y106500
X129500Y90500
X51500Y94000
X44000Y98000
Y124500
X52500Y117000
X45744Y68744
X27500Y153000
X12500Y158000
X27382Y198882
X47000Y223000
X56200Y222000
X41000Y240500
X82244Y243256
X87756Y243256
X94453Y220000
X73610Y221000
X74047Y205500
X59000
X58500Y201000
X64815Y182591
X93000Y183193
X105000Y182906
X120000Y209488
X137500Y210653
X157500Y211000
X151000Y160500
Y142500
T04
X62000Y33000
Y58500
X83000Y91000
X97500
X90500Y99500
X83000Y107000
X98000
X44500Y58500
Y33000
T05
X105167Y14000
X115167
X125167
X135167
X145167
X145500Y53000
X158500Y53333
Y63333
Y73333
Y83333
Y43333
X115000Y26500
X48000Y14000
X38000
X28000
X18000
X8000
X18000Y26500
X14000Y56000
X30500
X29000Y82000
X14500
Y92000
Y102000
Y112000
Y122000
X29000Y118500
Y102000
X14500Y132000
X48500Y153000
X49000Y196500
X35000Y198500
Y208500
Y218500
X49000Y213000
X41000Y256000
X101000Y239500
X111000
X117500Y257000
X137500Y246500
X157500
X147500Y198000
X158500Y181000
Y171000
Y161000
Y151000
Y141000
X146000Y150500
X111500Y163000
Y173000
X116000Y195500
X98500Y153000
X88500
X78500
X68500
X58500
X71500Y137000
X86800
X102300
T06
X25000Y237563
Y245437
T07
X6500Y187535
Y220409
M30
