G04 Layer_Color=255*
%FSLAX25Y25*%
%MOIN*%
G70*
G01*
G75*
%ADD28C,0.01000*%
%ADD30C,0.06000*%
%ADD31O,0.04921X0.04134*%
%ADD32C,0.05905*%
%ADD33R,0.05905X0.05905*%
%ADD34R,0.05905X0.05905*%
%ADD35C,0.01575*%
%ADD36C,0.05937*%
%ADD37C,0.03937*%
%ADD39O,0.08268X0.05512*%
D28*
X0Y267000D02*
X172000D01*
X0Y0D02*
Y267000D01*
Y0D02*
X172000D01*
Y267000D01*
D30*
X83000Y107000D02*
D03*
X98000D02*
D03*
X83000Y91000D02*
D03*
X97500D02*
D03*
X90500Y99500D02*
D03*
D31*
X18528Y212732D02*
D03*
Y195213D02*
D03*
D32*
X158500Y83333D02*
D03*
Y73333D02*
D03*
Y63333D02*
D03*
Y53333D02*
D03*
X14500Y92000D02*
D03*
Y102000D02*
D03*
Y112000D02*
D03*
Y122000D02*
D03*
Y132000D02*
D03*
X48000Y14000D02*
D03*
X38000D02*
D03*
X28000D02*
D03*
X18000D02*
D03*
X158500Y181000D02*
D03*
Y171000D02*
D03*
Y161000D02*
D03*
Y151000D02*
D03*
X35000Y208500D02*
D03*
Y198500D02*
D03*
X48500Y153000D02*
D03*
X58500D02*
D03*
X68500D02*
D03*
X78500D02*
D03*
X88500D02*
D03*
X111500Y163000D02*
D03*
X111000Y239500D02*
D03*
X145167Y14000D02*
D03*
X135167D02*
D03*
X125167D02*
D03*
X115167D02*
D03*
D33*
X158500Y43333D02*
D03*
X157500Y246500D02*
D03*
X137500D02*
D03*
X146000Y150500D02*
D03*
X145500Y53000D02*
D03*
X14500Y82000D02*
D03*
X158500Y141000D02*
D03*
X35000Y218500D02*
D03*
X111500Y173000D02*
D03*
D34*
X102300Y137000D02*
D03*
X86800D02*
D03*
X71500D02*
D03*
X117500Y257000D02*
D03*
X49000Y213000D02*
D03*
X30500Y56000D02*
D03*
X29000Y118500D02*
D03*
X41000Y256000D02*
D03*
X14000Y56000D02*
D03*
X29000Y102000D02*
D03*
X49000Y196500D02*
D03*
X29000Y82000D02*
D03*
X116000Y195500D02*
D03*
X8000Y14000D02*
D03*
X98500Y153000D02*
D03*
X101000Y239500D02*
D03*
X105167Y14000D02*
D03*
X115000Y26500D02*
D03*
X18000D02*
D03*
X147500Y198000D02*
D03*
D35*
X82563Y215000D02*
D03*
Y211063D02*
D03*
X86500D02*
D03*
Y215000D02*
D03*
D36*
X25000Y245437D02*
D03*
Y237563D02*
D03*
D37*
X62000Y58500D02*
D03*
X44500D02*
D03*
Y33000D02*
D03*
X62000D02*
D03*
D39*
X6500Y187535D02*
D03*
Y220409D02*
D03*
M02*
