G04 Layer_Color=65535*
%FSLAX25Y25*%
%MOIN*%
G70*
G01*
G75*
%ADD28C,0.01000*%
%ADD40C,0.00984*%
%ADD41C,0.00000*%
%ADD42C,0.00500*%
%ADD43C,0.00800*%
%ADD44C,0.00591*%
%ADD45C,0.00787*%
%ADD46C,0.00600*%
%ADD47C,0.00200*%
D28*
X125500Y174000D02*
Y267000D01*
X6000Y168000D02*
X119500D01*
X0D02*
X6000D01*
X157380Y221153D02*
X157620D01*
X137380Y222153D02*
X137620D01*
X119500Y168000D02*
X125500Y174000D01*
X17500Y180499D02*
X19499Y177500D01*
Y180499D02*
X17500Y177500D01*
X20499D02*
X21499D01*
X20999D01*
Y180499D01*
X20499Y179999D01*
X0Y267000D02*
X172000D01*
X0Y0D02*
Y267000D01*
Y0D02*
X172000D01*
Y267000D01*
D40*
X102792Y145071D02*
G03*
X102792Y145071I-492J0D01*
G01*
X87292D02*
G03*
X87292Y145071I-492J0D01*
G01*
X71992D02*
G03*
X71992Y145071I-492J0D01*
G01*
X117992Y265071D02*
G03*
X117992Y265071I-492J0D01*
G01*
X49492Y221071D02*
G03*
X49492Y221071I-492J0D01*
G01*
X149921Y246500D02*
G03*
X149921Y246500I-492J0D01*
G01*
X129921D02*
G03*
X129921Y246500I-492J0D01*
G01*
X30992Y64071D02*
G03*
X30992Y64071I-492J0D01*
G01*
X29492Y126571D02*
G03*
X29492Y126571I-492J0D01*
G01*
X41492Y264071D02*
G03*
X41492Y264071I-492J0D01*
G01*
X14492Y64071D02*
G03*
X14492Y64071I-492J0D01*
G01*
X138421Y150500D02*
G03*
X138421Y150500I-492J0D01*
G01*
X137921Y53000D02*
G03*
X137921Y53000I-492J0D01*
G01*
X29492Y110071D02*
G03*
X29492Y110071I-492J0D01*
G01*
X49492Y204571D02*
G03*
X49492Y204571I-492J0D01*
G01*
X29492Y90071D02*
G03*
X29492Y90071I-492J0D01*
G01*
X116492Y203571D02*
G03*
X116492Y203571I-492J0D01*
G01*
X115492Y34571D02*
G03*
X115492Y34571I-492J0D01*
G01*
X18492D02*
G03*
X18492Y34571I-492J0D01*
G01*
X147992Y206071D02*
G03*
X147992Y206071I-492J0D01*
G01*
D41*
X79299Y60988D02*
G03*
X79299Y60988I-984J0D01*
G01*
D42*
X25500Y250000D02*
G03*
X25500Y250000I-500J0D01*
G01*
X56200Y70200D02*
Y87400D01*
X66900D01*
Y70200D02*
Y87400D01*
X56200Y70200D02*
X66900D01*
X81500Y56000D02*
X82681D01*
X78500Y50532D02*
Y52500D01*
X81500Y47000D02*
X82681D01*
X85500Y50532D02*
Y52500D01*
X51999Y46499D02*
X51499Y46999D01*
X50500D01*
X50000Y46499D01*
Y45999D01*
X50500Y45500D01*
X51499D01*
X51999Y45000D01*
Y44500D01*
X51499Y44000D01*
X50500D01*
X50000Y44500D01*
X52999Y46999D02*
Y44000D01*
X53999Y45000D01*
X54998Y44000D01*
Y46999D01*
X55998Y44000D02*
X56998D01*
X56498D01*
Y46999D01*
X55998Y46499D01*
X165500Y232500D02*
X162501D01*
Y233999D01*
X163001Y234499D01*
X164000D01*
X164500Y233999D01*
Y232500D01*
Y233500D02*
X165500Y234499D01*
Y235499D02*
Y236499D01*
Y235999D01*
X162501D01*
X163001Y235499D01*
X96100Y231599D02*
Y229100D01*
X96600Y228600D01*
X97600D01*
X98099Y229100D01*
Y231599D01*
X99099Y229100D02*
X99599Y228600D01*
X100599D01*
X101098Y229100D01*
Y231099D01*
X100599Y231599D01*
X99599D01*
X99099Y231099D01*
Y230599D01*
X99599Y230100D01*
X101098D01*
X106600Y155099D02*
Y152600D01*
X107100Y152100D01*
X108099D01*
X108599Y152600D01*
Y155099D01*
X109599D02*
X111598D01*
Y154599D01*
X109599Y152600D01*
Y152100D01*
X60000Y67499D02*
Y66999D01*
X61000Y66000D01*
X61999Y66999D01*
Y67499D01*
X61000Y66000D02*
Y64500D01*
X62999D02*
X63999D01*
X63499D01*
Y67499D01*
X62999Y66999D01*
X11501Y237500D02*
X14000D01*
X14500Y238000D01*
Y239000D01*
X14000Y239499D01*
X11501D01*
X12001Y240499D02*
X11501Y240999D01*
Y241999D01*
X12001Y242498D01*
X12501D01*
X13001Y241999D01*
X13500Y242498D01*
X14000D01*
X14500Y241999D01*
Y240999D01*
X14000Y240499D01*
X13500D01*
X13001Y240999D01*
X12501Y240499D01*
X12001D01*
X13001Y240999D02*
Y241999D01*
X75999Y54500D02*
X73000D01*
X74499D01*
Y52501D01*
X75999D01*
X73000D01*
X75999Y49502D02*
Y51501D01*
X74499D01*
Y50501D01*
Y51501D01*
X73000D01*
X72500Y48502D02*
Y46503D01*
X75999Y45503D02*
X73000Y43504D01*
X75999D02*
X73000Y45503D01*
X75999Y42504D02*
Y40505D01*
Y41504D01*
X73000D01*
Y39505D02*
X74999D01*
X75999Y38505D01*
X74999Y37505D01*
X73000D01*
X74499D01*
Y39505D01*
X75999Y36506D02*
X73000D01*
Y34506D01*
Y33507D02*
Y32507D01*
Y33007D01*
X75999D01*
X75499Y33507D01*
X143501Y219500D02*
X146500D01*
Y221000D01*
X146000Y221499D01*
X144001D01*
X143501Y221000D01*
Y219500D01*
X146500Y224498D02*
Y222499D01*
X144501Y224498D01*
X144001D01*
X143501Y223998D01*
Y222999D01*
X144001Y222499D01*
X163501Y220000D02*
X166500D01*
Y221499D01*
X166000Y221999D01*
X164001D01*
X163501Y221499D01*
Y220000D01*
X166500Y222999D02*
Y223999D01*
Y223499D01*
X163501D01*
X164001Y222999D01*
X72500Y173500D02*
X69501Y173480D01*
X69491Y174980D01*
X69988Y175483D01*
X70987Y175490D01*
X71491Y174993D01*
X71500Y173494D01*
X71494Y174493D02*
X72487Y175499D01*
X69472Y177979D02*
X69478Y176979D01*
X69981Y176483D01*
X71981Y176496D01*
X72477Y176999D01*
X72471Y177998D01*
X71968Y178495D01*
X69968Y178482D01*
X69472Y177979D01*
X69462Y179479D02*
X71461Y179491D01*
X72455Y180498D01*
X71448Y181491D01*
X69449Y181478D01*
X72429Y184496D02*
X72442Y182497D01*
X70429Y184483D01*
X69929Y184480D01*
X69433Y183977D01*
X69439Y182977D01*
X69942Y182481D01*
X61000Y186000D02*
X58002Y186055D01*
X58029Y187554D01*
X58538Y188045D01*
X59537Y188026D01*
X60028Y187517D01*
X60000Y186018D01*
X60019Y187018D02*
X61036Y187999D01*
X58084Y190553D02*
X58065Y189553D01*
X58556Y189044D01*
X60555Y189008D01*
X61064Y189498D01*
X61082Y190498D01*
X60592Y191007D01*
X58592Y191043D01*
X58084Y190553D01*
X58111Y192052D02*
X60110Y192015D01*
X61128Y192997D01*
X60146Y194014D01*
X58148Y194051D01*
X61164Y194996D02*
X61183Y195995D01*
X61173Y195495D01*
X58175Y195550D01*
X58666Y195041D01*
X100114Y172016D02*
X97115Y171988D01*
X97101Y173488D01*
X97597Y173992D01*
X98596Y174001D01*
X99101Y173506D01*
X99115Y172007D01*
X99105Y173006D02*
X100096Y174015D01*
X97074Y176487D02*
X97083Y175487D01*
X97588Y174992D01*
X99587Y175010D01*
X100082Y175514D01*
X100073Y176514D01*
X99568Y177009D01*
X97569Y176991D01*
X97074Y176487D01*
X97060Y177986D02*
X99559Y178009D01*
X100055Y178513D01*
X100045Y179513D01*
X99541Y180008D01*
X97042Y179985D01*
X97033Y180985D02*
X97014Y182984D01*
X97024Y181985D01*
X100022Y182012D01*
X99986Y186011D02*
X100004Y184011D01*
X97987Y185992D01*
X97487Y185988D01*
X96991Y185483D01*
X97001Y184484D01*
X97505Y183988D01*
X110000Y180000D02*
X110062Y182998D01*
X111561Y182967D01*
X112050Y182457D01*
X112030Y181458D01*
X111520Y180969D01*
X110021Y181000D01*
X111020Y180979D02*
X111999Y179959D01*
X114559Y182906D02*
X113560Y182926D01*
X113050Y182437D01*
X113009Y180438D01*
X113498Y179928D01*
X114498Y179907D01*
X115008Y180397D01*
X115049Y182396D01*
X114559Y182906D01*
X116059Y182875D02*
X116007Y180376D01*
X116497Y179866D01*
X117496Y179845D01*
X118006Y180335D01*
X118058Y182834D01*
X119057Y182813D02*
X121056Y182772D01*
X120056Y182792D01*
X119995Y179794D01*
X121994Y179753D02*
X122993Y179732D01*
X122493Y179742D01*
X122555Y182741D01*
X122045Y182251D01*
X80500Y173500D02*
X77501Y173545D01*
X77524Y175045D01*
X78031Y175537D01*
X79031Y175522D01*
X79523Y175014D01*
X79500Y173515D01*
X79516Y174515D02*
X80530Y175499D01*
X77570Y178043D02*
X77554Y177044D01*
X78047Y176537D01*
X80046Y176506D01*
X80553Y176998D01*
X80568Y177998D01*
X80076Y178505D01*
X78077Y178536D01*
X77570Y178043D01*
X77592Y179543D02*
X80591Y179497D01*
X79591Y179513D01*
X77622Y181542D01*
X79099Y180020D01*
X80621Y181497D01*
X78137Y182534D02*
X77645Y183041D01*
X77660Y184041D01*
X78168Y184533D01*
X78667Y184526D01*
X79160Y184018D01*
X79152Y183518D01*
X79160Y184018D01*
X79667Y184510D01*
X80167Y184503D01*
X80659Y183995D01*
X80644Y182996D01*
X80137Y182504D01*
X87500Y173500D02*
X84501Y173482D01*
X84492Y174982D01*
X84989Y175485D01*
X85989Y175490D01*
X86492Y174994D01*
X86500Y173494D01*
X86494Y174494D02*
X87488Y175499D01*
X84474Y177981D02*
X84480Y176981D01*
X84983Y176484D01*
X86982Y176496D01*
X87479Y176999D01*
X87473Y177998D01*
X86971Y178495D01*
X84971Y178483D01*
X84474Y177981D01*
X84465Y179480D02*
X87464Y179498D01*
X86465Y179492D01*
X84454Y181480D01*
X85962Y179989D01*
X87453Y181497D01*
X87435Y184496D02*
X87447Y182497D01*
X85436Y184484D01*
X84936Y184482D01*
X84439Y183979D01*
X84445Y182979D01*
X84948Y182482D01*
X95000Y171000D02*
X92001Y170984D01*
X91993Y172483D01*
X92490Y172986D01*
X93490Y172991D01*
X93992Y172494D01*
X94000Y170995D01*
X93995Y171994D02*
X94989Y172999D01*
X91976Y175482D02*
X91982Y174483D01*
X92484Y173985D01*
X94484Y173996D01*
X94981Y174499D01*
X94976Y175498D01*
X94473Y175996D01*
X92474Y175985D01*
X91976Y175482D01*
X91968Y176982D02*
X94967Y176998D01*
X93968Y176992D01*
X91957Y178981D01*
X93465Y177490D01*
X94956Y178997D01*
X94951Y179997D02*
X94946Y180997D01*
X94948Y180497D01*
X91949Y180480D01*
X92452Y179983D01*
X107000Y50500D02*
Y53499D01*
X108500D01*
X108999Y52999D01*
Y51999D01*
X108500Y51500D01*
X107000D01*
X108000D02*
X108999Y50500D01*
X109999D02*
Y52499D01*
X110999Y53499D01*
X111998Y52499D01*
Y50500D01*
Y51999D01*
X109999D01*
X112998Y53499D02*
Y51500D01*
X113998Y50500D01*
X114997Y51500D01*
Y53499D01*
X115997D02*
Y50500D01*
X117497D01*
X117996Y51000D01*
Y52999D01*
X117497Y53499D01*
X115997D01*
X118996D02*
Y50500D01*
X120496D01*
X120995Y51000D01*
Y52999D01*
X120496Y53499D01*
X118996D01*
X146000Y232000D02*
X143001D01*
Y233500D01*
X143501Y233999D01*
X144501D01*
X145000Y233500D01*
Y232000D01*
Y233000D02*
X146000Y233999D01*
Y236998D02*
Y234999D01*
X144001Y236998D01*
X143501D01*
X143001Y236498D01*
Y235499D01*
X143501Y234999D01*
X43600Y142100D02*
Y145099D01*
X45099D01*
X45599Y144599D01*
Y143599D01*
X45099Y143100D01*
X43600D01*
X46599Y145099D02*
X48598D01*
Y144599D01*
X46599Y142600D01*
Y142100D01*
X30100Y187600D02*
Y190599D01*
X31600D01*
X32099Y190099D01*
Y189100D01*
X31600Y188600D01*
X30100D01*
X35098Y190599D02*
X34099Y190099D01*
X33099Y189100D01*
Y188100D01*
X33599Y187600D01*
X34599D01*
X35098Y188100D01*
Y188600D01*
X34599Y189100D01*
X33099D01*
X153600Y130100D02*
Y133099D01*
X155099D01*
X155599Y132599D01*
Y131599D01*
X155099Y131100D01*
X153600D01*
X158598Y133099D02*
X156599D01*
Y131599D01*
X157599Y132099D01*
X158099D01*
X158598Y131599D01*
Y130600D01*
X158099Y130100D01*
X157099D01*
X156599Y130600D01*
X156000Y33500D02*
Y36499D01*
X157500D01*
X157999Y35999D01*
Y34999D01*
X157500Y34500D01*
X156000D01*
X160499Y33500D02*
Y36499D01*
X158999Y34999D01*
X160998D01*
X92500Y13000D02*
Y15999D01*
X93999D01*
X94499Y15499D01*
Y14500D01*
X93999Y14000D01*
X92500D01*
X95499Y15499D02*
X95999Y15999D01*
X96999D01*
X97498Y15499D01*
Y14999D01*
X96999Y14500D01*
X96499D01*
X96999D01*
X97498Y14000D01*
Y13500D01*
X96999Y13000D01*
X95999D01*
X95499Y13500D01*
X56500Y13000D02*
Y15999D01*
X57999D01*
X58499Y15499D01*
Y14500D01*
X57999Y14000D01*
X56500D01*
X61498Y13000D02*
X59499D01*
X61498Y14999D01*
Y15499D01*
X60999Y15999D01*
X59999D01*
X59499Y15499D01*
X9600Y71100D02*
Y74099D01*
X11100D01*
X11599Y73599D01*
Y72600D01*
X11100Y72100D01*
X9600D01*
X12599Y71100D02*
X13599D01*
X13099D01*
Y74099D01*
X12599Y73599D01*
X117000Y224499D02*
Y221500D01*
X118999D01*
X121998D02*
X119999D01*
X121998Y223499D01*
Y223999D01*
X121499Y224499D01*
X120499D01*
X119999Y223999D01*
X62000Y247499D02*
Y244500D01*
X63999D01*
X64999D02*
X65999D01*
X65499D01*
Y247499D01*
X64999Y246999D01*
X114999Y187499D02*
X114000D01*
X114499D01*
Y185000D01*
X114000Y184500D01*
X113500D01*
X113000Y185000D01*
X117998Y187499D02*
X115999D01*
Y186000D01*
X116999Y186499D01*
X117499D01*
X117998Y186000D01*
Y185000D01*
X117499Y184500D01*
X116499D01*
X115999Y185000D01*
X49999Y229999D02*
X49000D01*
X49499D01*
Y227500D01*
X49000Y227000D01*
X48500D01*
X48000Y227500D01*
X50999Y229499D02*
X51499Y229999D01*
X52499D01*
X52998Y229499D01*
Y228999D01*
X52499Y228500D01*
X51999D01*
X52499D01*
X52998Y228000D01*
Y227500D01*
X52499Y227000D01*
X51499D01*
X50999Y227500D01*
X136499Y256999D02*
X135500D01*
X136000D01*
Y254500D01*
X135500Y254000D01*
X135000D01*
X134500Y254500D01*
X139498Y254000D02*
X137499D01*
X139498Y255999D01*
Y256499D01*
X138999Y256999D01*
X137999D01*
X137499Y256499D01*
X157499Y256999D02*
X156500D01*
X157000D01*
Y254500D01*
X156500Y254000D01*
X156000D01*
X155500Y254500D01*
X158499Y254000D02*
X159499D01*
X158999D01*
Y256999D01*
X158499Y256499D01*
X109499Y47499D02*
X107500D01*
Y46000D01*
X108500D01*
X107500D01*
Y44500D01*
X110499Y47499D02*
Y44500D01*
X111999D01*
X112498Y45000D01*
Y45500D01*
X111999Y46000D01*
X110499D01*
X111999D01*
X112498Y46499D01*
Y46999D01*
X111999Y47499D01*
X110499D01*
X113498D02*
Y45500D01*
X114498Y44500D01*
X115497Y45500D01*
Y47499D01*
X116497D02*
Y44500D01*
X117997D01*
X118496Y45000D01*
Y46999D01*
X117997Y47499D01*
X116497D01*
X119496D02*
Y44500D01*
X120996D01*
X121495Y45000D01*
Y46999D01*
X120996Y47499D01*
X119496D01*
X113499Y93501D02*
X113999Y94001D01*
Y95000D01*
X113499Y95500D01*
X111500D01*
X111000Y95000D01*
Y94001D01*
X111500Y93501D01*
X113999Y92501D02*
X112000D01*
X111000Y91501D01*
X112000Y90502D01*
X113999D01*
Y89502D02*
X111000D01*
Y88002D01*
X111500Y87503D01*
X113499D01*
X113999Y88002D01*
Y89502D01*
Y86503D02*
X111000D01*
Y85003D01*
X111500Y84504D01*
X113499D01*
X113999Y85003D01*
Y86503D01*
X130999Y93501D02*
X131499Y94001D01*
Y95000D01*
X130999Y95500D01*
X129000D01*
X128500Y95000D01*
Y94001D01*
X129000Y93501D01*
X131499Y92501D02*
X129500D01*
X128500Y91501D01*
X129500Y90502D01*
X131499D01*
Y89502D02*
X128500D01*
Y88002D01*
X129000Y87503D01*
X130999D01*
X131499Y88002D01*
Y89502D01*
Y86503D02*
X128500D01*
Y85003D01*
X129000Y84504D01*
X130999D01*
X131499Y85003D01*
Y86503D01*
X128500Y83504D02*
Y82504D01*
Y83004D01*
X131499D01*
X130999Y83504D01*
X75501Y228999D02*
X75001Y228500D01*
Y227500D01*
X75501Y227000D01*
X77500D01*
X78000Y227500D01*
Y228500D01*
X77500Y228999D01*
X75501Y231998D02*
X75001Y231499D01*
Y230499D01*
X75501Y229999D01*
X76001D01*
X76500Y230499D01*
Y231499D01*
X77000Y231998D01*
X77500D01*
X78000Y231499D01*
Y230499D01*
X77500Y229999D01*
X75001Y232998D02*
Y234997D01*
Y233998D01*
X78000D01*
X75001Y237497D02*
Y236497D01*
X75501Y235997D01*
X77500D01*
X78000Y236497D01*
Y237497D01*
X77500Y237996D01*
X75501D01*
X75001Y237497D01*
X78000Y238996D02*
X75001D01*
Y240496D01*
X75501Y240996D01*
X76500D01*
X77000Y240496D01*
Y238996D01*
Y239996D02*
X78000Y240996D01*
X63499Y201499D02*
X62999Y201999D01*
X62000D01*
X61500Y201499D01*
Y199500D01*
X62000Y199000D01*
X62999D01*
X63499Y199500D01*
X64499Y199000D02*
Y201999D01*
X65999D01*
X66498Y201499D01*
Y200500D01*
X65999Y200000D01*
X64499D01*
X65499D02*
X66498Y199000D01*
X69497Y201999D02*
X67498D01*
Y199000D01*
X69497D01*
X67498Y200500D02*
X68498D01*
X72496Y201999D02*
X70497D01*
Y200500D01*
X71497D01*
X70497D01*
Y199000D01*
X99499Y215001D02*
X99999Y215500D01*
Y216500D01*
X99499Y217000D01*
X97500D01*
X97000Y216500D01*
Y215500D01*
X97500Y215001D01*
X99999Y212502D02*
Y213501D01*
X99499Y214001D01*
X97500D01*
X97000Y213501D01*
Y212502D01*
X97500Y212002D01*
X99499D01*
X99999Y212502D01*
Y211002D02*
X97500D01*
X97000Y210502D01*
Y209502D01*
X97500Y209003D01*
X99999D01*
Y208003D02*
Y206004D01*
Y207003D01*
X97000D01*
X110499Y215501D02*
X110999Y216001D01*
Y217000D01*
X110499Y217500D01*
X108500D01*
X108000Y217000D01*
Y216001D01*
X108500Y215501D01*
X110999Y213001D02*
Y214001D01*
X110499Y214501D01*
X108500D01*
X108000Y214001D01*
Y213001D01*
X108500Y212502D01*
X110499D01*
X110999Y213001D01*
Y211502D02*
X108500D01*
X108000Y211002D01*
Y210002D01*
X108500Y209503D01*
X110999D01*
Y208503D02*
Y206504D01*
Y207503D01*
X108000D01*
Y205504D02*
Y204504D01*
Y205004D01*
X110999D01*
X110499Y205504D01*
X45999Y79999D02*
X45500Y80499D01*
X44500D01*
X44000Y79999D01*
Y78000D01*
X44500Y77500D01*
X45500D01*
X45999Y78000D01*
X46999Y80499D02*
Y77500D01*
X48998D01*
X51997D02*
X49998D01*
X51997Y79499D01*
Y79999D01*
X51498Y80499D01*
X50498D01*
X49998Y79999D01*
X36999Y65999D02*
X36500Y66499D01*
X35500D01*
X35000Y65999D01*
Y64000D01*
X35500Y63500D01*
X36500D01*
X36999Y64000D01*
X37999Y66499D02*
Y63500D01*
X39998D01*
X40998D02*
X41998D01*
X41498D01*
Y66499D01*
X40998Y65999D01*
X58501Y106999D02*
X58001Y106500D01*
Y105500D01*
X58501Y105000D01*
X60500D01*
X61000Y105500D01*
Y106500D01*
X60500Y106999D01*
X58001Y107999D02*
Y108999D01*
Y108499D01*
X61000D01*
Y107999D01*
Y108999D01*
X58001Y111998D02*
Y110998D01*
X58501Y110498D01*
X60500D01*
X61000Y110998D01*
Y111998D01*
X60500Y112498D01*
X58501D01*
X58001Y111998D01*
Y113497D02*
X60000D01*
X61000Y114497D01*
X60000Y115497D01*
X58001D01*
Y116496D02*
X61000D01*
Y117996D01*
X60500Y118496D01*
X58501D01*
X58001Y117996D01*
Y116496D01*
Y119495D02*
X61000D01*
Y120995D01*
X60500Y121495D01*
X58501D01*
X58001Y120995D01*
Y119495D01*
X102499Y122999D02*
X101999Y123499D01*
X101000D01*
X100500Y122999D01*
Y121000D01*
X101000Y120500D01*
X101999D01*
X102499Y121000D01*
X103499Y123499D02*
X104499D01*
X103999D01*
Y120500D01*
X103499D01*
X104499D01*
X107498Y123499D02*
X106498D01*
X105998Y122999D01*
Y121000D01*
X106498Y120500D01*
X107498D01*
X107998Y121000D01*
Y122999D01*
X107498Y123499D01*
X108997D02*
Y121500D01*
X109997Y120500D01*
X110997Y121500D01*
Y123499D01*
X111996D02*
Y120500D01*
X113496D01*
X113996Y121000D01*
Y122999D01*
X113496Y123499D01*
X111996D01*
X114995D02*
Y120500D01*
X116495D01*
X116995Y121000D01*
Y122999D01*
X116495Y123499D01*
X114995D01*
X117994Y120000D02*
X119994D01*
X122993Y123499D02*
X120993D01*
Y122000D01*
X121993Y122499D01*
X122493D01*
X122993Y122000D01*
Y121000D01*
X122493Y120500D01*
X121493D01*
X120993Y121000D01*
X92001Y35999D02*
X91501Y35500D01*
Y34500D01*
X92001Y34000D01*
X94000D01*
X94500Y34500D01*
Y35500D01*
X94000Y35999D01*
X91501Y36999D02*
Y37999D01*
Y37499D01*
X94500D01*
Y36999D01*
Y37999D01*
X91501Y40998D02*
Y39998D01*
X92001Y39498D01*
X94000D01*
X94500Y39998D01*
Y40998D01*
X94000Y41498D01*
X92001D01*
X91501Y40998D01*
Y42497D02*
X93500D01*
X94500Y43497D01*
X93500Y44497D01*
X91501D01*
Y45496D02*
X94500D01*
Y46996D01*
X94000Y47496D01*
X92001D01*
X91501Y46996D01*
Y45496D01*
Y48495D02*
X94500D01*
Y49995D01*
X94000Y50495D01*
X92001D01*
X91501Y49995D01*
Y48495D01*
X95000Y51494D02*
Y53494D01*
X92001Y54493D02*
X91501Y54993D01*
Y55993D01*
X92001Y56493D01*
X92501D01*
X93001Y55993D01*
Y55493D01*
Y55993D01*
X93500Y56493D01*
X94000D01*
X94500Y55993D01*
Y54993D01*
X94000Y54493D01*
X64501Y105999D02*
X64001Y105499D01*
Y104500D01*
X64501Y104000D01*
X66500D01*
X67000Y104500D01*
Y105499D01*
X66500Y105999D01*
X64001Y106999D02*
Y107999D01*
Y107499D01*
X67000D01*
Y106999D01*
Y107999D01*
X64001Y110998D02*
Y109998D01*
X64501Y109498D01*
X66500D01*
X67000Y109998D01*
Y110998D01*
X66500Y111498D01*
X64501D01*
X64001Y110998D01*
Y112497D02*
X66000D01*
X67000Y113497D01*
X66000Y114497D01*
X64001D01*
Y115496D02*
X67000D01*
Y116996D01*
X66500Y117496D01*
X64501D01*
X64001Y116996D01*
Y115496D01*
Y118495D02*
X67000D01*
Y119995D01*
X66500Y120495D01*
X64501D01*
X64001Y119995D01*
Y118495D01*
X67500Y121494D02*
Y123494D01*
X64501Y124493D02*
X64001Y124993D01*
Y125993D01*
X64501Y126493D01*
X66500D01*
X67000Y125993D01*
Y124993D01*
X66500Y124493D01*
X64501D01*
X62499Y222499D02*
X61999Y222999D01*
X61000D01*
X60500Y222499D01*
Y220500D01*
X61000Y220000D01*
X61999D01*
X62499Y220500D01*
X63499Y222999D02*
X64499D01*
X63999D01*
Y220000D01*
X63499D01*
X64499D01*
X65998D02*
Y222999D01*
X67998Y220000D01*
Y222999D01*
X69999Y54501D02*
X70499Y55001D01*
Y56000D01*
X69999Y56500D01*
X68000D01*
X67500Y56000D01*
Y55001D01*
X68000Y54501D01*
X70499Y53501D02*
X67500D01*
X68999D01*
Y51502D01*
X70499D01*
X67500D01*
Y48503D02*
Y50502D01*
X69499Y48503D01*
X69999D01*
X70499Y49002D01*
Y50002D01*
X69999Y50502D01*
X83999Y36499D02*
X83499Y36999D01*
X82500D01*
X82000Y36499D01*
Y34500D01*
X82500Y34000D01*
X83499D01*
X83999Y34500D01*
X84999Y36999D02*
Y34000D01*
Y35500D01*
X86998D01*
Y36999D01*
Y34000D01*
X87998D02*
X88998D01*
X88498D01*
Y36999D01*
X87998Y36499D01*
X112499Y105999D02*
X111999Y106499D01*
X111000D01*
X110500Y105999D01*
Y104000D01*
X111000Y103500D01*
X111999D01*
X112499Y104000D01*
X113499Y106499D02*
Y103500D01*
X114999D01*
X115498Y104000D01*
Y105999D01*
X114999Y106499D01*
X113499D01*
X118497D02*
X116498D01*
Y103500D01*
X118497D01*
X116498Y104999D02*
X117498D01*
X121496Y105999D02*
X120997Y106499D01*
X119997D01*
X119497Y105999D01*
Y104000D01*
X119997Y103500D01*
X120997D01*
X121496Y104000D01*
X81999Y226499D02*
X81499Y226999D01*
X80500D01*
X80000Y226499D01*
Y224500D01*
X80500Y224000D01*
X81499D01*
X81999Y224500D01*
X82999Y226999D02*
Y224000D01*
X84499D01*
X84998Y224500D01*
Y225000D01*
X84499Y225500D01*
X82999D01*
X84499D01*
X84998Y225999D01*
Y226499D01*
X84499Y226999D01*
X82999D01*
X85998D02*
Y226499D01*
X86998Y225500D01*
X87997Y226499D01*
Y226999D01*
X86998Y225500D02*
Y224000D01*
X88997D02*
Y226999D01*
X90497D01*
X90996Y226499D01*
Y225500D01*
X90497Y225000D01*
X88997D01*
X113499Y66499D02*
X112999Y66999D01*
X112000D01*
X111500Y66499D01*
Y64500D01*
X112000Y64000D01*
X112999D01*
X113499Y64500D01*
X114499Y64000D02*
Y65999D01*
X115499Y66999D01*
X116498Y65999D01*
Y64000D01*
Y65500D01*
X114499D01*
X117498Y66999D02*
Y65000D01*
X118498Y64000D01*
X119497Y65000D01*
Y66999D01*
X120497D02*
Y64000D01*
X121997D01*
X122496Y64500D01*
Y66499D01*
X121997Y66999D01*
X120497D01*
X123496D02*
Y64000D01*
X124996D01*
X125496Y64500D01*
Y66499D01*
X124996Y66999D01*
X123496D01*
X69501Y60999D02*
X69001Y60500D01*
Y59500D01*
X69501Y59000D01*
X71500D01*
X72000Y59500D01*
Y60500D01*
X71500Y60999D01*
X72000Y61999D02*
X70001D01*
X69001Y62999D01*
X70001Y63998D01*
X72000D01*
X70500D01*
Y61999D01*
X69001Y64998D02*
X71000D01*
X72000Y65998D01*
X71000Y66997D01*
X69001D01*
Y67997D02*
X72000D01*
Y69497D01*
X71500Y69996D01*
X69501D01*
X69001Y69497D01*
Y67997D01*
Y70996D02*
X72000D01*
Y72496D01*
X71500Y72996D01*
X69501D01*
X69001Y72496D01*
Y70996D01*
X72500Y73995D02*
Y75994D01*
X72000Y76994D02*
Y77994D01*
Y77494D01*
X69001D01*
X69501Y76994D01*
X113499Y73499D02*
X112999Y73999D01*
X112000D01*
X111500Y73499D01*
Y71500D01*
X112000Y71000D01*
X112999D01*
X113499Y71500D01*
X114499Y71000D02*
Y72999D01*
X115499Y73999D01*
X116498Y72999D01*
Y71000D01*
Y72500D01*
X114499D01*
X117498Y73999D02*
Y72000D01*
X118498Y71000D01*
X119497Y72000D01*
Y73999D01*
X120497D02*
Y71000D01*
X121997D01*
X122496Y71500D01*
Y73499D01*
X121997Y73999D01*
X120497D01*
X123496D02*
Y71000D01*
X124996D01*
X125496Y71500D01*
Y73499D01*
X124996Y73999D01*
X123496D01*
X126495Y70500D02*
X128495D01*
X129494Y73499D02*
X129994Y73999D01*
X130994D01*
X131493Y73499D01*
Y71500D01*
X130994Y71000D01*
X129994D01*
X129494Y71500D01*
Y73499D01*
X50599Y60099D02*
X50099Y60599D01*
X49100D01*
X48600Y60099D01*
Y58100D01*
X49100Y57600D01*
X50099D01*
X50599Y58100D01*
X51599Y57600D02*
X52599D01*
X52099D01*
Y60599D01*
X51599Y60099D01*
X82000Y201499D02*
Y199000D01*
X82500Y198500D01*
X83499D01*
X83999Y199000D01*
Y201499D01*
X84999Y198500D02*
X85999D01*
X85499D01*
Y201499D01*
X84999Y200999D01*
X22000Y225999D02*
Y223500D01*
X22500Y223000D01*
X23499D01*
X23999Y223500D01*
Y225999D01*
X24999Y225499D02*
X25499Y225999D01*
X26499D01*
X26998Y225499D01*
Y224999D01*
X26499Y224500D01*
X25999D01*
X26499D01*
X26998Y224000D01*
Y223500D01*
X26499Y223000D01*
X25499D01*
X24999Y223500D01*
X148999Y26500D02*
X146500D01*
X146000Y26000D01*
Y25001D01*
X146500Y24501D01*
X148999D01*
X146000Y22001D02*
X148999D01*
X147500Y23501D01*
Y21502D01*
X7900Y144199D02*
Y141700D01*
X8400Y141200D01*
X9399D01*
X9899Y141700D01*
Y144199D01*
X12898D02*
X11899Y143699D01*
X10899Y142700D01*
Y141700D01*
X11399Y141200D01*
X12399D01*
X12898Y141700D01*
Y142200D01*
X12399Y142700D01*
X10899D01*
X18501Y150500D02*
X21000D01*
X21500Y151000D01*
Y151999D01*
X21000Y152499D01*
X18501D01*
Y155498D02*
Y153499D01*
X20000D01*
X19501Y154499D01*
Y154999D01*
X20000Y155498D01*
X21000D01*
X21500Y154999D01*
Y153999D01*
X21000Y153499D01*
X86299Y129499D02*
X85300D01*
X85799D01*
Y127000D01*
X85300Y126500D01*
X84800D01*
X84300Y127000D01*
X89298Y129499D02*
X88299Y128999D01*
X87299Y127999D01*
Y127000D01*
X87799Y126500D01*
X88799D01*
X89298Y127000D01*
Y127500D01*
X88799Y127999D01*
X87299D01*
X102799Y129499D02*
X101800D01*
X102299D01*
Y127000D01*
X101800Y126500D01*
X101300D01*
X100800Y127000D01*
X103799Y129499D02*
X105798D01*
Y128999D01*
X103799Y127000D01*
Y126500D01*
X70999Y128999D02*
X70000D01*
X70499D01*
Y126500D01*
X70000Y126000D01*
X69500D01*
X69000Y126500D01*
X71999Y128499D02*
X72499Y128999D01*
X73499D01*
X73998Y128499D01*
Y127999D01*
X73499Y127499D01*
X73998Y127000D01*
Y126500D01*
X73499Y126000D01*
X72499D01*
X71999Y126500D01*
Y127000D01*
X72499Y127499D01*
X71999Y127999D01*
Y128499D01*
X72499Y127499D02*
X73499D01*
X38499Y82999D02*
X37500D01*
X37999D01*
Y80500D01*
X37500Y80000D01*
X37000D01*
X36500Y80500D01*
X39499D02*
X39999Y80000D01*
X40999D01*
X41498Y80500D01*
Y82499D01*
X40999Y82999D01*
X39999D01*
X39499Y82499D01*
Y81999D01*
X39999Y81499D01*
X41498D01*
X45599Y188099D02*
X44600D01*
X45099D01*
Y185600D01*
X44600Y185100D01*
X44100D01*
X43600Y185600D01*
X46599Y185100D02*
X47599D01*
X47099D01*
Y188099D01*
X46599Y187599D01*
X49098D02*
X49598Y188099D01*
X50598D01*
X51098Y187599D01*
Y185600D01*
X50598Y185100D01*
X49598D01*
X49098Y185600D01*
Y187599D01*
X39999Y103499D02*
X39000D01*
X39500D01*
Y101000D01*
X39000Y100500D01*
X38500D01*
X38000Y101000D01*
X40999Y100500D02*
X41999D01*
X41499D01*
Y103499D01*
X40999Y102999D01*
X43498Y100500D02*
X44498D01*
X43998D01*
Y103499D01*
X43498Y102999D01*
X4999Y27999D02*
X4000D01*
X4499D01*
Y25500D01*
X4000Y25000D01*
X3500D01*
X3000Y25500D01*
X5999Y25000D02*
X6999D01*
X6499D01*
Y27999D01*
X5999Y27499D01*
X8498D02*
X8998Y27999D01*
X9998D01*
X10498Y27499D01*
Y26999D01*
X9998Y26500D01*
X9498D01*
X9998D01*
X10498Y26000D01*
Y25500D01*
X9998Y25000D01*
X8998D01*
X8498Y25500D01*
X125999Y28999D02*
X125000D01*
X125499D01*
Y26500D01*
X125000Y26000D01*
X124500D01*
X124000Y26500D01*
X126999Y26000D02*
X127999D01*
X127499D01*
Y28999D01*
X126999Y28499D01*
X130998Y26000D02*
Y28999D01*
X129498Y27499D01*
X131498D01*
X138899Y44599D02*
X137900D01*
X138400D01*
Y42100D01*
X137900Y41600D01*
X137400D01*
X136900Y42100D01*
X139899Y41600D02*
X140899D01*
X140399D01*
Y44599D01*
X139899Y44099D01*
X144398Y44599D02*
X142398D01*
Y43099D01*
X143398Y43599D01*
X143898D01*
X144398Y43099D01*
Y42100D01*
X143898Y41600D01*
X142898D01*
X142398Y42100D01*
X139399Y142099D02*
X138400D01*
X138900D01*
Y139600D01*
X138400Y139100D01*
X137900D01*
X137400Y139600D01*
X140399Y139100D02*
X141399D01*
X140899D01*
Y142099D01*
X140399Y141599D01*
X144898Y142099D02*
X143898Y141599D01*
X142898Y140600D01*
Y139600D01*
X143398Y139100D01*
X144398D01*
X144898Y139600D01*
Y140100D01*
X144398Y140600D01*
X142898D01*
X10599Y47099D02*
X10099Y47599D01*
X9100D01*
X8600Y47099D01*
Y45100D01*
X9100Y44600D01*
X10099D01*
X10599Y45100D01*
Y46099D01*
X9600D01*
X11599Y44600D02*
Y47599D01*
X13598Y44600D01*
Y47599D01*
X14598D02*
Y44600D01*
X16098D01*
X16597Y45100D01*
Y47099D01*
X16098Y47599D01*
X14598D01*
X17597Y44600D02*
X18597D01*
X18097D01*
Y47599D01*
X17597Y47099D01*
X99999Y258499D02*
X99499Y258999D01*
X98500D01*
X98000Y258499D01*
Y256500D01*
X98500Y256000D01*
X99499D01*
X99999Y256500D01*
Y257500D01*
X99000D01*
X100999Y256000D02*
Y258999D01*
X102998Y256000D01*
Y258999D01*
X103998D02*
Y256000D01*
X105498D01*
X105997Y256500D01*
Y258499D01*
X105498Y258999D01*
X103998D01*
X108996Y256000D02*
X106997D01*
X108996Y257999D01*
Y258499D01*
X108497Y258999D01*
X107497D01*
X106997Y258499D01*
X156999Y199499D02*
X156500Y199999D01*
X155500D01*
X155000Y199499D01*
Y197500D01*
X155500Y197000D01*
X156500D01*
X156999Y197500D01*
Y198500D01*
X156000D01*
X157999Y197000D02*
Y199999D01*
X159998Y197000D01*
Y199999D01*
X160998D02*
Y197000D01*
X162498D01*
X162997Y197500D01*
Y199499D01*
X162498Y199999D01*
X160998D01*
X163997Y199499D02*
X164497Y199999D01*
X165497D01*
X165996Y199499D01*
Y198999D01*
X165497Y198500D01*
X164997D01*
X165497D01*
X165996Y198000D01*
Y197500D01*
X165497Y197000D01*
X164497D01*
X163997Y197500D01*
X37599Y247099D02*
X37099Y247599D01*
X36100D01*
X35600Y247099D01*
Y245100D01*
X36100Y244600D01*
X37099D01*
X37599Y245100D01*
Y246099D01*
X36600D01*
X38599Y244600D02*
Y247599D01*
X40598Y244600D01*
Y247599D01*
X41598D02*
Y244600D01*
X43098D01*
X43597Y245100D01*
Y247099D01*
X43098Y247599D01*
X41598D01*
X46097Y244600D02*
Y247599D01*
X44597Y246099D01*
X46596D01*
X38999Y119499D02*
X38000D01*
X38500D01*
Y117000D01*
X38000Y116500D01*
X37500D01*
X37000Y117000D01*
X39999Y116500D02*
X40999D01*
X40499D01*
Y119499D01*
X39999Y118999D01*
X44498Y116500D02*
X42498D01*
X44498Y118499D01*
Y118999D01*
X43998Y119499D01*
X42998D01*
X42498Y118999D01*
X27999Y47999D02*
X27000D01*
X27499D01*
Y45500D01*
X27000Y45000D01*
X26500D01*
X26000Y45500D01*
X30998Y45000D02*
X28999D01*
X30998Y46999D01*
Y47499D01*
X30499Y47999D01*
X29499D01*
X28999Y47499D01*
X31998Y45000D02*
X32998D01*
X32498D01*
Y47999D01*
X31998Y47499D01*
X84000Y77999D02*
Y75500D01*
X84500Y75000D01*
X85500D01*
X85999Y75500D01*
Y77999D01*
X88998Y75000D02*
X86999D01*
X88998Y76999D01*
Y77499D01*
X88499Y77999D01*
X87499D01*
X86999Y77499D01*
D43*
X77236Y112083D02*
G03*
X77236Y112083I-787J0D01*
G01*
X72284Y115035D02*
Y116217D01*
X73465D01*
X106535D02*
X107717D01*
Y115035D02*
Y116217D01*
Y80783D02*
Y81965D01*
X106535Y80783D02*
X107717D01*
X72284D02*
Y81965D01*
Y80783D02*
X73465D01*
D44*
X11106Y189406D02*
X18193D01*
X-1531D02*
X1854D01*
X-1531Y218539D02*
X1854D01*
X11106D02*
X18193D01*
Y189406D02*
Y192161D01*
Y215784D02*
Y218539D01*
X-3894Y188913D02*
X-3402Y188224D01*
X-3894Y188913D02*
X-1531Y190390D01*
X-3402Y188224D02*
X-1531Y189406D01*
X-3402Y219721D02*
X-1531Y218539D01*
X-3894Y219032D02*
X-1531Y217555D01*
X-3894Y219032D02*
X-3402Y219721D01*
X-3894Y191217D02*
Y216728D01*
Y191217D02*
X-1531D01*
Y190390D02*
Y191217D01*
X-3894Y216728D02*
X-1531D01*
Y217555D01*
D45*
X153500Y38333D02*
X163500D01*
X153500D02*
Y88333D01*
X163500Y38333D02*
Y88333D01*
X153500D02*
X163500D01*
X96788Y142512D02*
X107812D01*
X107812Y131488D02*
Y142512D01*
X96788Y131488D02*
X107812D01*
X96788Y131488D02*
Y142512D01*
X81288D02*
X92312D01*
X92312Y131488D02*
Y142512D01*
X81288Y131488D02*
X92312D01*
X81288Y131488D02*
Y142512D01*
X65988D02*
X77012D01*
X77012Y131488D02*
Y142512D01*
X65988Y131488D02*
X77012D01*
X65988Y131488D02*
Y142512D01*
X111988Y262512D02*
X123012D01*
X123012Y251488D02*
Y262512D01*
X111988Y251488D02*
X123012D01*
X111988Y251488D02*
Y262512D01*
X43488Y207488D02*
Y218512D01*
X43488Y207488D02*
X54512D01*
Y218512D01*
X43488Y218512D02*
X54512D01*
X151988Y240988D02*
X163012D01*
X163012Y240988D02*
Y252012D01*
X151988D02*
X163012D01*
X151988Y240988D02*
Y252012D01*
X131988Y240988D02*
X143012D01*
X143012Y240988D02*
Y252012D01*
X131988D02*
X143012D01*
X131988Y240988D02*
Y252012D01*
X24988Y61512D02*
X36012D01*
X36012Y50488D02*
Y61512D01*
X24988Y50488D02*
X36012D01*
X24988Y50488D02*
Y61512D01*
X23488Y124012D02*
X34512D01*
X34512Y112988D02*
Y124012D01*
X23488Y112988D02*
X34512D01*
X23488Y112988D02*
Y124012D01*
X35488Y261512D02*
X46512D01*
X46512Y250488D02*
Y261512D01*
X35488Y250488D02*
X46512D01*
X35488Y250488D02*
Y261512D01*
X8488Y61512D02*
X19512D01*
X19512Y50488D02*
Y61512D01*
X8488Y50488D02*
X19512D01*
X8488Y50488D02*
Y61512D01*
X140488Y144988D02*
Y156012D01*
X140488Y156012D02*
X151512D01*
Y144988D02*
Y156012D01*
X140488Y144988D02*
X151512D01*
X139988Y47488D02*
Y58512D01*
X139988Y58512D02*
X151012D01*
Y47488D02*
Y58512D01*
X139988Y47488D02*
X151012D01*
X23488Y107512D02*
X34512D01*
X34512Y96488D02*
Y107512D01*
X23488Y96488D02*
X34512D01*
X23488Y96488D02*
Y107512D01*
X43488Y202012D02*
X54512D01*
X54512Y190988D02*
Y202012D01*
X43488Y190988D02*
X54512D01*
X43488Y190988D02*
Y202012D01*
X23488Y87512D02*
X34512D01*
X34512Y76488D02*
Y87512D01*
X23488Y76488D02*
X34512D01*
X23488Y76488D02*
Y87512D01*
X77642Y218543D02*
Y218740D01*
X78823Y219921D01*
X79020D01*
X90043D02*
X91421D01*
Y218543D02*
Y219921D01*
Y206142D02*
Y207520D01*
X90043Y206142D02*
X91421D01*
X77642D02*
X79020D01*
X77642D02*
Y207520D01*
X110488Y189988D02*
Y201012D01*
X110488Y189988D02*
X121512D01*
Y201012D01*
X110488Y201012D02*
X121512D01*
X9500Y137000D02*
X19500D01*
X9500Y77000D02*
X19500D01*
X9500D02*
Y137000D01*
X19500Y77000D02*
Y137000D01*
X3000Y9000D02*
Y19000D01*
X53000D01*
X3000Y9000D02*
X53000D01*
Y19000D01*
X153500Y136000D02*
X163500D01*
X153500D02*
Y186000D01*
X163500Y136000D02*
Y186000D01*
X153500D02*
X163500D01*
X30000Y193500D02*
Y223500D01*
Y193500D02*
X40000D01*
Y223500D01*
X30000D02*
X40000D01*
X43500Y158000D02*
X103500D01*
X43500Y148000D02*
X103500D01*
Y158000D01*
X43500Y148000D02*
Y158000D01*
X103378Y51713D02*
Y53287D01*
X100622Y51713D02*
Y53287D01*
X91622Y190665D02*
Y192240D01*
X94378Y190665D02*
Y192240D01*
X84122Y190618D02*
Y192193D01*
X86878Y190618D02*
Y192193D01*
X80421Y190650D02*
Y192224D01*
X77665Y190650D02*
Y192224D01*
X103622Y190650D02*
Y192224D01*
X106378Y190650D02*
Y192224D01*
X99378Y191165D02*
Y192740D01*
X96622Y191165D02*
Y192740D01*
X63437Y190650D02*
Y192224D01*
X66193Y190650D02*
Y192224D01*
X71878Y190618D02*
Y192193D01*
X69122Y190618D02*
Y192193D01*
X106500Y158000D02*
X116500D01*
X106500D02*
Y178000D01*
X116500D01*
Y158000D02*
Y178000D01*
X116000Y234500D02*
Y244500D01*
X96000Y234500D02*
X116000D01*
X96000D02*
Y244500D01*
X116000D01*
X100167Y9000D02*
Y19000D01*
X150167D01*
X100167Y9000D02*
X150167D01*
Y19000D01*
X109488Y32012D02*
X120512D01*
X120512Y20988D02*
Y32012D01*
X109488Y20988D02*
X120512D01*
X109488Y20988D02*
Y32012D01*
X12488D02*
X23512D01*
X23512Y20988D02*
Y32012D01*
X12488Y20988D02*
X23512D01*
X12488Y20988D02*
Y32012D01*
X141988Y203512D02*
X153012D01*
X153012Y192488D02*
Y203512D01*
X141988Y192488D02*
X153012D01*
X141988Y192488D02*
Y203512D01*
D46*
X394Y229689D02*
X31299D01*
X394Y253311D02*
X31299D01*
X394Y229689D02*
Y253311D01*
D47*
X66000Y29500D02*
Y62000D01*
X41000D02*
X66000D01*
X41000Y29500D02*
Y62000D01*
Y29500D02*
X66000D01*
M02*
