G04 Layer_Physical_Order=1*
G04 Layer_Color=255*
%FSLAX25Y25*%
%MOIN*%
G70*
G01*
G75*
%ADD10R,0.05315X0.01575*%
%ADD11R,0.07480X0.07087*%
%ADD12R,0.03150X0.03543*%
%ADD13R,0.07500X0.04300*%
%ADD14R,0.01000X0.02800*%
%ADD15R,0.03347X0.03347*%
%ADD16R,0.03543X0.03150*%
%ADD17R,0.02800X0.01000*%
%ADD18O,0.03347X0.01181*%
%ADD19O,0.01181X0.03347*%
%ADD20R,0.08465X0.08465*%
%ADD21R,0.06299X0.16929*%
%ADD22R,0.03150X0.07874*%
%ADD23R,0.03543X0.02756*%
%ADD24R,0.01929X0.02244*%
%ADD25R,0.00984X0.02362*%
%ADD26R,0.02362X0.00984*%
%ADD27C,0.01400*%
%ADD28C,0.01000*%
%ADD29C,0.01200*%
%ADD30C,0.06000*%
%ADD31O,0.04921X0.04134*%
%ADD32C,0.05905*%
%ADD33R,0.05905X0.05905*%
%ADD34R,0.05905X0.05905*%
%ADD35C,0.01575*%
%ADD36C,0.05937*%
%ADD37C,0.03937*%
%ADD38C,0.02400*%
G36*
X112295Y36808D02*
X112077Y36283D01*
X111974Y35500D01*
Y31953D01*
X109547D01*
Y21047D01*
X111974D01*
Y18423D01*
X111278Y17889D01*
X111093Y17648D01*
X110619Y17809D01*
Y19453D01*
X106699D01*
X106392Y19917D01*
X106396Y19953D01*
X107086Y20414D01*
X107572Y21142D01*
X107644Y21500D01*
X103356D01*
X103428Y21142D01*
X103914Y20414D01*
X104604Y19953D01*
X104608Y19917D01*
X104301Y19453D01*
X99714D01*
Y9026D01*
X51296D01*
X51126Y9526D01*
X51889Y10111D01*
X52763Y11250D01*
X53312Y12577D01*
X53500Y14000D01*
X53312Y15423D01*
X52763Y16750D01*
X51889Y17889D01*
X50750Y18763D01*
X49424Y19312D01*
X48000Y19500D01*
X46576Y19312D01*
X45250Y18763D01*
X44111Y17889D01*
X43237Y16750D01*
X42688Y15423D01*
X42500Y14000D01*
X42688Y12577D01*
X43237Y11250D01*
X44111Y10111D01*
X44874Y9526D01*
X44704Y9026D01*
X31296D01*
X31126Y9526D01*
X31889Y10111D01*
X32763Y11250D01*
X33312Y12577D01*
X33500Y14000D01*
X33312Y15423D01*
X32763Y16750D01*
X31889Y17889D01*
X30750Y18763D01*
X29423Y19312D01*
X28000Y19500D01*
X26577Y19312D01*
X25250Y18763D01*
X24111Y17889D01*
X23281Y16807D01*
X23000Y16776D01*
X22719Y16807D01*
X21889Y17889D01*
X21026Y18551D01*
Y21047D01*
X23453D01*
Y23474D01*
X97000D01*
X97783Y23577D01*
X98513Y23879D01*
X99140Y24360D01*
X111871Y37092D01*
X112295Y36808D01*
D02*
G37*
G36*
X9728Y222897D02*
X10060Y222565D01*
X10240Y222131D01*
Y221896D01*
Y214474D01*
X2760D01*
Y221108D01*
Y221500D01*
X3060Y222223D01*
X3613Y222777D01*
X4337Y223077D01*
X9294D01*
X9728Y222897D01*
D02*
G37*
G36*
X139360Y50860D02*
X139987Y50380D01*
X140047Y50355D01*
Y47547D01*
X150953D01*
Y49974D01*
X154205D01*
X154611Y49444D01*
X154852Y49259D01*
X154691Y48786D01*
X153047D01*
Y37881D01*
X162974D01*
Y23982D01*
X162474Y23765D01*
X161866Y24232D01*
X160966Y24605D01*
X160000Y24732D01*
X159034Y24605D01*
X158134Y24232D01*
X157361Y23639D01*
X156768Y22866D01*
X156395Y21966D01*
X156268Y21000D01*
X156347Y20400D01*
X155939Y19900D01*
X153100D01*
Y12197D01*
X153074Y12000D01*
Y11853D01*
X152247Y11026D01*
X150359D01*
X150044Y11526D01*
X150479Y12577D01*
X150666Y14000D01*
X150479Y15423D01*
X149930Y16750D01*
X149056Y17889D01*
X147917Y18763D01*
X146590Y19312D01*
X145167Y19500D01*
X143743Y19312D01*
X142417Y18763D01*
X141278Y17889D01*
X140404Y16750D01*
X139854Y15423D01*
X139667Y14000D01*
X139854Y12577D01*
X140289Y11526D01*
X139975Y11026D01*
X138497D01*
X138251Y11526D01*
X138619Y12007D01*
X139018Y12968D01*
X139088Y13500D01*
X131246D01*
X131316Y12968D01*
X131714Y12007D01*
X132083Y11526D01*
X131836Y11026D01*
X130359D01*
X130044Y11526D01*
X130479Y12577D01*
X130666Y14000D01*
X130479Y15423D01*
X129930Y16750D01*
X129056Y17889D01*
X127917Y18763D01*
X126590Y19312D01*
X125167Y19500D01*
X124925Y19958D01*
X124925Y19972D01*
X125586Y20414D01*
X126072Y21142D01*
X126144Y21500D01*
X121856D01*
X121928Y21142D01*
X122414Y20414D01*
X123142Y19928D01*
X123703Y19816D01*
X123738Y19346D01*
X123720Y19303D01*
X122417Y18763D01*
X121278Y17889D01*
X120447Y16807D01*
X120167Y16776D01*
X119886Y16807D01*
X119056Y17889D01*
X118026Y18679D01*
Y21047D01*
X120453D01*
Y31953D01*
X118026D01*
Y34247D01*
X130640Y46860D01*
X131121Y47487D01*
X131423Y48217D01*
X131526Y49000D01*
Y58042D01*
X131988Y58233D01*
X139360Y50860D01*
D02*
G37*
G36*
X97669Y72052D02*
Y68728D01*
Y61728D01*
X97757D01*
X98108Y61228D01*
X98012Y60500D01*
X98100Y59831D01*
X97728Y59331D01*
X97728D01*
Y51575D01*
Y45669D01*
Y39681D01*
X99228D01*
Y38744D01*
X102000D01*
Y37744D01*
X99228D01*
Y35669D01*
X101237D01*
X101428Y35207D01*
X95747Y29526D01*
X65597D01*
X65350Y30026D01*
X65903Y30746D01*
X66353Y31833D01*
X66507Y33000D01*
X66353Y34166D01*
X65903Y35254D01*
X65187Y36187D01*
X65026Y36311D01*
Y55189D01*
X65187Y55313D01*
X65903Y56247D01*
X66353Y57333D01*
X66507Y58500D01*
X66353Y59667D01*
X65903Y60754D01*
X65187Y61687D01*
X64698Y62062D01*
X64760Y62435D01*
X64825Y62595D01*
X65513Y62880D01*
X66140Y63360D01*
X70063Y67284D01*
X70562Y67251D01*
X70861Y66861D01*
X71520Y66356D01*
X71151Y65466D01*
X71024Y64500D01*
X71151Y63534D01*
X71524Y62634D01*
X72117Y61861D01*
X72890Y61268D01*
X73790Y60895D01*
X74756Y60768D01*
X74793Y60773D01*
X75169Y60443D01*
Y59453D01*
X75091D01*
Y52209D01*
X78377D01*
X78568Y51747D01*
X77613Y50791D01*
X75091D01*
Y43547D01*
X75169D01*
Y36728D01*
X75514D01*
X75639Y35778D01*
X76012Y34878D01*
X76605Y34105D01*
X77378Y33512D01*
X78278Y33139D01*
X79244Y33012D01*
X80210Y33139D01*
X81110Y33512D01*
X81883Y34105D01*
X82476Y34878D01*
X82849Y35778D01*
X82974Y36728D01*
X88831D01*
Y43547D01*
X88909D01*
Y46355D01*
X90840Y48285D01*
X90840Y48285D01*
X91321Y48911D01*
X91623Y49641D01*
X91726Y50424D01*
Y55540D01*
X92226Y55870D01*
X93000Y55768D01*
X93966Y55895D01*
X94866Y56268D01*
X95639Y56861D01*
X96232Y57634D01*
X96605Y58534D01*
X96732Y59500D01*
X96605Y60466D01*
X96232Y61366D01*
X95728Y62023D01*
Y62669D01*
X96772D01*
Y70819D01*
X95272D01*
Y71756D01*
X92500D01*
Y72756D01*
X95272D01*
Y73796D01*
X95734Y73987D01*
X97669Y72052D01*
D02*
G37*
G36*
X10240Y186049D02*
Y185814D01*
X10060Y185380D01*
X9728Y185048D01*
X9294Y184868D01*
X4337D01*
X3613Y185168D01*
X3060Y185722D01*
X2760Y186445D01*
Y186837D01*
Y193471D01*
X10240D01*
Y186049D01*
D02*
G37*
G36*
X164474Y145736D02*
Y83561D01*
X163974Y83529D01*
X163962Y83622D01*
X163812Y84757D01*
X163263Y86083D01*
X162389Y87222D01*
X161250Y88096D01*
X159924Y88646D01*
X158500Y88833D01*
X157077Y88646D01*
X155750Y88096D01*
X154611Y87222D01*
X153737Y86083D01*
X153188Y84757D01*
X153000Y83333D01*
X153188Y81910D01*
X153737Y80583D01*
X154611Y79444D01*
X155750Y78570D01*
X157077Y78021D01*
X158500Y77833D01*
X159924Y78021D01*
X161250Y78570D01*
X162389Y79444D01*
X163263Y80583D01*
X163812Y81910D01*
X163962Y83045D01*
X163974Y83138D01*
X164474Y83105D01*
Y63561D01*
X163974Y63529D01*
X163812Y64757D01*
X163263Y66083D01*
X162389Y67222D01*
X161250Y68096D01*
X159924Y68646D01*
X158500Y68833D01*
X157077Y68646D01*
X155750Y68096D01*
X154611Y67222D01*
X153737Y66083D01*
X153188Y64757D01*
X153000Y63333D01*
X153188Y61910D01*
X153737Y60583D01*
X154611Y59444D01*
X155693Y58614D01*
X155724Y58333D01*
X155693Y58053D01*
X154611Y57222D01*
X153737Y56083D01*
X153713Y56026D01*
X150953D01*
Y58453D01*
X140326D01*
X135026Y63753D01*
Y77500D01*
X135026Y77500D01*
X134923Y78283D01*
X134620Y79013D01*
X134140Y79640D01*
X134140Y79640D01*
X131901Y81878D01*
X131906Y81960D01*
X141140Y91193D01*
X141621Y91820D01*
X141923Y92550D01*
X142026Y93333D01*
Y145047D01*
X149801D01*
X150108Y144583D01*
X150104Y144547D01*
X149414Y144086D01*
X148928Y143358D01*
X148856Y143000D01*
X151000D01*
Y142500D01*
X151500D01*
Y140356D01*
X151858Y140428D01*
X152547Y140888D01*
X153047Y140773D01*
Y135547D01*
X163953D01*
Y145483D01*
X164453Y145750D01*
X164474Y145736D01*
D02*
G37*
G36*
X170000Y265000D02*
X170000Y149977D01*
X169500Y149779D01*
X166140Y153140D01*
X165513Y153621D01*
X164783Y153923D01*
X164000Y154026D01*
X163051D01*
X162389Y154889D01*
X161307Y155719D01*
X161276Y156000D01*
X161307Y156281D01*
X162389Y157111D01*
X163263Y158250D01*
X163812Y159576D01*
X164000Y161000D01*
X163812Y162424D01*
X163263Y163750D01*
X162389Y164889D01*
X161250Y165763D01*
X159924Y166312D01*
X158500Y166500D01*
X157077Y166312D01*
X155750Y165763D01*
X154611Y164889D01*
X153737Y163750D01*
X153188Y162424D01*
X153144Y162093D01*
X152657Y161980D01*
X152586Y162086D01*
X151858Y162572D01*
X151500Y162644D01*
Y160500D01*
Y158356D01*
X151858Y158428D01*
X152586Y158914D01*
X152793Y159223D01*
X153357Y159168D01*
X153737Y158250D01*
X154611Y157111D01*
X155693Y156281D01*
X155724Y156000D01*
X155693Y155719D01*
X154611Y154889D01*
X153737Y153750D01*
X153644Y153526D01*
X151453D01*
Y155953D01*
X140547D01*
Y153145D01*
X140487Y153121D01*
X139860Y152640D01*
X136860Y149640D01*
X136380Y149013D01*
X136077Y148283D01*
X135974Y147500D01*
Y94586D01*
X133349Y91962D01*
X132859Y92059D01*
X132732Y92366D01*
X132139Y93139D01*
X131366Y93732D01*
X130466Y94105D01*
X129500Y94232D01*
X128534Y94105D01*
X127844Y93819D01*
X127272D01*
Y94756D01*
X124500D01*
Y95756D01*
X127272D01*
Y97831D01*
X126831D01*
Y104772D01*
X126831D01*
X126805Y104810D01*
X127105Y105534D01*
X127232Y106500D01*
X127105Y107466D01*
X126732Y108366D01*
X126139Y109139D01*
X125366Y109732D01*
X124466Y110105D01*
X123500Y110232D01*
X122534Y110105D01*
X121634Y109732D01*
X120861Y109139D01*
X120268Y108366D01*
X119895Y107466D01*
X119768Y106500D01*
X119895Y105534D01*
X120039Y105187D01*
X119761Y104772D01*
X113169D01*
Y103526D01*
X113000D01*
X112217Y103423D01*
X111898Y103291D01*
X111398Y103625D01*
Y106335D01*
Y110272D01*
Y116256D01*
X107790D01*
Y125896D01*
X108290Y126163D01*
X108642Y125928D01*
X109000Y125856D01*
Y128000D01*
Y130144D01*
X108642Y130072D01*
X108138Y129736D01*
X107572Y129858D01*
X107534Y129888D01*
X107384Y130249D01*
X106903Y130876D01*
X106694Y131085D01*
X106885Y131547D01*
X107753D01*
Y142453D01*
X105326D01*
Y142800D01*
X105223Y143583D01*
X104920Y144313D01*
X104440Y144940D01*
X102294Y147085D01*
X102485Y147547D01*
X103953D01*
Y158453D01*
X97326D01*
X91140Y164640D01*
X90513Y165120D01*
X89783Y165423D01*
X89000Y165526D01*
X42500D01*
X42500Y165526D01*
X41717Y165423D01*
X40987Y165120D01*
X40360Y164640D01*
X40360Y164640D01*
X35647Y159926D01*
X35000D01*
X34803Y159900D01*
X27100D01*
Y156679D01*
X26534Y156605D01*
X25634Y156232D01*
X24861Y155639D01*
X24268Y154866D01*
X23895Y153966D01*
X23768Y153000D01*
X23895Y152034D01*
X24268Y151134D01*
X24861Y150361D01*
X25634Y149768D01*
X26534Y149395D01*
X27100Y149321D01*
Y146100D01*
X34803D01*
X35000Y146074D01*
X35197Y146100D01*
X38900D01*
Y146240D01*
X39186Y146277D01*
X39916Y146580D01*
X40543Y147060D01*
X43378Y149896D01*
X44042Y149853D01*
X44611Y149111D01*
X45750Y148237D01*
X47076Y147688D01*
X48500Y147500D01*
X49924Y147688D01*
X51250Y148237D01*
X52389Y149111D01*
X53263Y150250D01*
X53812Y151576D01*
X54000Y153000D01*
X53945Y153413D01*
X54270Y153766D01*
X54489Y153500D01*
X58500D01*
X62421D01*
X62408Y153599D01*
X62718Y154014D01*
X63085Y153646D01*
X63000Y153000D01*
X63188Y151576D01*
X63737Y150250D01*
X64611Y149111D01*
X64662Y149072D01*
X64694Y148573D01*
X50360Y134240D01*
X49880Y133613D01*
X49577Y132883D01*
X49474Y132100D01*
Y119134D01*
X49268Y118866D01*
X48932Y118054D01*
X48433Y117846D01*
X45640Y120640D01*
X45013Y121121D01*
X44283Y121423D01*
X43500Y121526D01*
X34453D01*
Y123953D01*
X23547D01*
Y122017D01*
X23500Y121526D01*
X22717Y121423D01*
X21987Y121121D01*
X21360Y120640D01*
X19637Y118916D01*
X19261Y119247D01*
X19263Y119250D01*
X19812Y120577D01*
X20000Y122000D01*
X19812Y123424D01*
X19263Y124750D01*
X18389Y125889D01*
X17250Y126763D01*
X15923Y127312D01*
X14500Y127500D01*
X13077Y127312D01*
X11926Y126836D01*
X11426Y127092D01*
Y128746D01*
X11926Y128993D01*
X12507Y128547D01*
X13468Y128149D01*
X14000Y128079D01*
Y132000D01*
X14500D01*
Y132500D01*
X18421D01*
X18351Y133032D01*
X17953Y133993D01*
X17319Y134819D01*
X16493Y135453D01*
X15532Y135851D01*
X15283Y135884D01*
X15122Y136357D01*
X18540Y139775D01*
X19020Y140401D01*
X19323Y141131D01*
X19426Y141914D01*
Y148500D01*
X19400Y148697D01*
Y152400D01*
Y156400D01*
X16292D01*
X16014Y156816D01*
X16105Y157034D01*
X16232Y158000D01*
X16105Y158966D01*
X15732Y159866D01*
X15139Y160639D01*
X14366Y161232D01*
X13466Y161605D01*
X12500Y161732D01*
X11534Y161605D01*
X10634Y161232D01*
X9861Y160639D01*
X9268Y159866D01*
X8895Y158966D01*
X8768Y158000D01*
X8895Y157034D01*
X8986Y156816D01*
X8708Y156400D01*
X6228D01*
Y165228D01*
X7951Y166951D01*
X107547Y166951D01*
X107793Y167000D01*
X109521D01*
X109621Y166500D01*
X109507Y166453D01*
X108681Y165819D01*
X108047Y164993D01*
X107649Y164032D01*
X107579Y163500D01*
X111500D01*
X115421D01*
X115351Y164032D01*
X114953Y164993D01*
X114319Y165819D01*
X113493Y166453D01*
X113379Y166500D01*
X113479Y167000D01*
X115207D01*
X115453Y166951D01*
X119000D01*
X119246Y167000D01*
X127000D01*
Y174754D01*
X127049Y175000D01*
Y206875D01*
X127128Y207473D01*
Y213100D01*
X127049Y213697D01*
X127049Y260049D01*
X132000Y265000D01*
X170000Y265000D01*
D02*
G37*
G36*
X124500Y265000D02*
X124500Y175000D01*
X119000Y169500D01*
X115453D01*
Y172500D01*
X111500D01*
X107547D01*
Y169500D01*
X6500Y169500D01*
X6228Y169772D01*
Y170163D01*
X9337Y173272D01*
X29000D01*
X29835Y173382D01*
X30614Y173705D01*
X31282Y174218D01*
X37282Y180218D01*
X37795Y180886D01*
X38118Y181665D01*
X38228Y182500D01*
Y194104D01*
X38852Y194583D01*
X39218Y194218D01*
X39886Y193705D01*
X40665Y193382D01*
X41500Y193272D01*
X43547D01*
Y191047D01*
X54453D01*
Y199796D01*
X54953Y199895D01*
X55268Y199134D01*
X55861Y198361D01*
X56634Y197768D01*
X57534Y197395D01*
X58500Y197268D01*
X59466Y197395D01*
X60043Y197634D01*
X60543Y197300D01*
Y190512D01*
Y184606D01*
X61104D01*
X61438Y184106D01*
X61210Y183556D01*
X61083Y182591D01*
X61210Y181625D01*
X61583Y180725D01*
X62176Y179952D01*
X62949Y179359D01*
X63849Y178986D01*
X64815Y178859D01*
X65781Y178986D01*
X66681Y179359D01*
X67454Y179952D01*
X68047Y180725D01*
X68420Y181625D01*
X68547Y182591D01*
X68420Y183556D01*
X68205Y184075D01*
X68539Y184575D01*
X74772D01*
Y184606D01*
X76017D01*
Y182957D01*
X76121Y182174D01*
X76423Y181444D01*
X76904Y180817D01*
X80367Y177353D01*
X80994Y176872D01*
X81724Y176570D01*
X82507Y176467D01*
X94533D01*
X95316Y176570D01*
X96046Y176872D01*
X96672Y177353D01*
X100972Y181653D01*
X101205Y181659D01*
X101549Y181568D01*
X101768Y181040D01*
X102361Y180267D01*
X103134Y179674D01*
X104034Y179301D01*
X105000Y179174D01*
X105966Y179301D01*
X106866Y179674D01*
X107639Y180267D01*
X108232Y181040D01*
X108605Y181940D01*
X108732Y182906D01*
X108605Y183871D01*
X108473Y184191D01*
X108750Y184606D01*
X109272D01*
Y190512D01*
Y192798D01*
X109772Y193045D01*
X109987Y192879D01*
X110547Y192648D01*
Y190047D01*
X121453D01*
Y200953D01*
X110547D01*
X110547Y200953D01*
Y200953D01*
X110127Y201152D01*
X106328Y204952D01*
X106519Y205413D01*
X108272D01*
Y206261D01*
X110728D01*
Y205413D01*
X119272D01*
Y205473D01*
X119648Y205803D01*
X120000Y205756D01*
X120966Y205883D01*
X121866Y206256D01*
X122639Y206849D01*
X123232Y207622D01*
X123605Y208522D01*
X123732Y209488D01*
X123605Y210454D01*
X123232Y211354D01*
X122639Y212127D01*
X121866Y212720D01*
X120966Y213093D01*
X120000Y213220D01*
X119648Y213174D01*
X119272Y213503D01*
Y213563D01*
X117772D01*
Y214500D01*
X115000D01*
X112228D01*
Y213563D01*
X110728D01*
Y212716D01*
X108272D01*
Y213563D01*
X106772D01*
Y214500D01*
X104000D01*
Y215500D01*
X106772D01*
Y217563D01*
X108075D01*
Y230437D01*
X102655D01*
X102463Y230899D01*
X103282Y231718D01*
X103795Y232386D01*
X104118Y233165D01*
X104228Y234000D01*
Y234047D01*
X106453D01*
Y235691D01*
X106926Y235852D01*
X107111Y235611D01*
X108250Y234737D01*
X109576Y234188D01*
X111000Y234000D01*
X112424Y234188D01*
X113750Y234737D01*
X114889Y235611D01*
X115763Y236750D01*
X116312Y238076D01*
X116500Y239500D01*
X116312Y240924D01*
X115763Y242250D01*
X114889Y243389D01*
X114018Y244057D01*
X113923Y244783D01*
X113620Y245513D01*
X113140Y246140D01*
X109640Y249640D01*
X109013Y250120D01*
X108283Y250423D01*
X107500Y250526D01*
X46944D01*
X46621Y250540D01*
X46453Y251007D01*
Y261453D01*
X35547D01*
Y250547D01*
X44886D01*
X44941Y250445D01*
X45018Y250047D01*
X44486Y249640D01*
X43310Y248463D01*
X29571D01*
X28900Y249337D01*
X27758Y250214D01*
X26428Y250765D01*
X25000Y250953D01*
X23572Y250765D01*
X22242Y250214D01*
X21100Y249337D01*
X20223Y248195D01*
X19672Y246865D01*
X19484Y245437D01*
X19672Y244009D01*
X20223Y242679D01*
X20831Y241887D01*
X21077Y241500D01*
X20831Y241113D01*
X20223Y240321D01*
X19672Y238991D01*
X19484Y237563D01*
X19672Y236135D01*
X20223Y234805D01*
X21100Y233663D01*
X22242Y232786D01*
X23572Y232235D01*
X25000Y232047D01*
X26428Y232235D01*
X27758Y232786D01*
X28900Y233663D01*
X29777Y234805D01*
X30328Y236135D01*
X30516Y237563D01*
X30328Y238991D01*
X29777Y240321D01*
X29169Y241113D01*
X28923Y241500D01*
X29169Y241887D01*
X29571Y242411D01*
X37246D01*
X37580Y241911D01*
X37395Y241466D01*
X37268Y240500D01*
X37347Y239900D01*
X36939Y239400D01*
X34100D01*
Y232358D01*
X34080Y232309D01*
X33973Y231500D01*
Y228538D01*
X32600Y227164D01*
X32087Y226496D01*
X31764Y225717D01*
X31654Y224882D01*
Y223953D01*
X29547D01*
Y221638D01*
X29004Y221413D01*
X28336Y220900D01*
X26218Y218782D01*
X25705Y218114D01*
X25382Y217335D01*
X25272Y216500D01*
Y212337D01*
X25128Y212193D01*
X23836D01*
X23506Y212569D01*
X23528Y212732D01*
X23371Y213925D01*
X22910Y215035D01*
X22178Y215989D01*
X21224Y216722D01*
X20113Y217182D01*
X18921Y217339D01*
X18134D01*
X16942Y217182D01*
X15831Y216722D01*
X14877Y215989D01*
X14145Y215035D01*
X13684Y213925D01*
X13528Y212732D01*
X13240Y212405D01*
X12740Y212411D01*
Y214543D01*
X11260D01*
Y217578D01*
X11304Y217636D01*
X11858Y218974D01*
X12048Y220409D01*
X11858Y221845D01*
X11304Y223183D01*
X10423Y224332D01*
X9274Y225214D01*
X7936Y225768D01*
X6500Y225957D01*
X5064Y225768D01*
X3726Y225214D01*
X2577Y224332D01*
X2473Y224197D01*
X2000Y224357D01*
X2000Y258000D01*
X9000Y265000D01*
X124500Y265000D01*
D02*
G37*
G36*
X68602Y104366D02*
Y97819D01*
X67772D01*
Y98756D01*
X65000D01*
X62228D01*
Y97819D01*
X60772D01*
Y98756D01*
X58000D01*
X55228D01*
Y97819D01*
X53728D01*
Y97534D01*
X53699Y97509D01*
X53228Y97289D01*
X52466Y97605D01*
X51500Y97732D01*
X50534Y97605D01*
X49634Y97232D01*
X48861Y96639D01*
X48268Y95866D01*
X47895Y94966D01*
X47768Y94000D01*
X47895Y93034D01*
X48268Y92134D01*
X48861Y91361D01*
X49634Y90768D01*
X50534Y90395D01*
X51500Y90268D01*
X52466Y90395D01*
X53228Y90711D01*
X53699Y90491D01*
X53728Y90466D01*
Y89669D01*
X68602D01*
Y88285D01*
X68206Y88007D01*
X67750Y88222D01*
Y88450D01*
X55250D01*
Y88272D01*
X41669D01*
X41526Y88712D01*
Y96843D01*
X42026Y96995D01*
X42414Y96414D01*
X43142Y95928D01*
X43500Y95856D01*
Y98000D01*
Y100144D01*
X43142Y100072D01*
X42414Y99586D01*
X42026Y99005D01*
X41526Y99157D01*
Y100747D01*
X47080Y106301D01*
X68602D01*
Y104366D01*
D02*
G37*
%LPC*%
G36*
X96216Y19142D02*
X94572D01*
Y17498D01*
X94931Y17569D01*
X95658Y18056D01*
X96145Y18783D01*
X96216Y19142D01*
D02*
G37*
G36*
X93572D02*
X91929D01*
X92000Y18783D01*
X92486Y18056D01*
X93214Y17569D01*
X93572Y17498D01*
Y19142D01*
D02*
G37*
G36*
X41921Y13500D02*
X38500D01*
Y10079D01*
X39032Y10149D01*
X39993Y10547D01*
X40819Y11181D01*
X41453Y12007D01*
X41851Y12968D01*
X41921Y13500D01*
D02*
G37*
G36*
X37500D02*
X34079D01*
X34149Y12968D01*
X34547Y12007D01*
X35181Y11181D01*
X36007Y10547D01*
X36968Y10149D01*
X37500Y10079D01*
Y13500D01*
D02*
G37*
G36*
X38500Y17921D02*
Y14500D01*
X41921D01*
X41851Y15032D01*
X41453Y15993D01*
X40819Y16819D01*
X39993Y17453D01*
X39032Y17851D01*
X38500Y17921D01*
D02*
G37*
G36*
X37500D02*
X36968Y17851D01*
X36007Y17453D01*
X35181Y16819D01*
X34547Y15993D01*
X34149Y15032D01*
X34079Y14500D01*
X37500D01*
Y17921D01*
D02*
G37*
G36*
X93572Y21785D02*
X93214Y21714D01*
X92486Y21228D01*
X92000Y20500D01*
X91929Y20142D01*
X93572D01*
Y21785D01*
D02*
G37*
G36*
X105000Y24144D02*
X104642Y24072D01*
X103914Y23586D01*
X103428Y22858D01*
X103356Y22500D01*
X105000D01*
Y24144D01*
D02*
G37*
G36*
X94572Y21785D02*
Y20142D01*
X96216D01*
X96145Y20500D01*
X95658Y21228D01*
X94931Y21714D01*
X94572Y21785D01*
D02*
G37*
G36*
X106000Y24144D02*
Y22500D01*
X107644D01*
X107572Y22858D01*
X107086Y23586D01*
X106358Y24072D01*
X106000Y24144D01*
D02*
G37*
G36*
X149500Y43500D02*
X147856D01*
X147928Y43142D01*
X148414Y42414D01*
X149142Y41928D01*
X149500Y41856D01*
Y43500D01*
D02*
G37*
G36*
X152144D02*
X150500D01*
Y41856D01*
X150858Y41928D01*
X151586Y42414D01*
X152072Y43142D01*
X152144Y43500D01*
D02*
G37*
G36*
X149500Y46144D02*
X149142Y46072D01*
X148414Y45586D01*
X147928Y44858D01*
X147856Y44500D01*
X149500D01*
Y46144D01*
D02*
G37*
G36*
X150500D02*
Y44500D01*
X152144D01*
X152072Y44858D01*
X151586Y45586D01*
X150858Y46072D01*
X150500Y46144D01*
D02*
G37*
G36*
X135667Y17921D02*
Y14500D01*
X139088D01*
X139018Y15032D01*
X138619Y15993D01*
X137986Y16819D01*
X137160Y17453D01*
X136198Y17851D01*
X135667Y17921D01*
D02*
G37*
G36*
X134667D02*
X134135Y17851D01*
X133173Y17453D01*
X132348Y16819D01*
X131714Y15993D01*
X131316Y15032D01*
X131246Y14500D01*
X134667D01*
Y17921D01*
D02*
G37*
G36*
X124500Y24144D02*
Y22500D01*
X126144D01*
X126072Y22858D01*
X125586Y23586D01*
X124858Y24072D01*
X124500Y24144D01*
D02*
G37*
G36*
X123500D02*
X123142Y24072D01*
X122414Y23586D01*
X121928Y22858D01*
X121856Y22500D01*
X123500D01*
Y24144D01*
D02*
G37*
G36*
X94500Y37644D02*
Y36000D01*
X96144D01*
X96072Y36358D01*
X95586Y37086D01*
X94858Y37572D01*
X94500Y37644D01*
D02*
G37*
G36*
X93500Y35000D02*
X91856D01*
X91928Y34642D01*
X92414Y33914D01*
X93142Y33428D01*
X93500Y33356D01*
Y35000D01*
D02*
G37*
G36*
Y37644D02*
X93142Y37572D01*
X92414Y37086D01*
X91928Y36358D01*
X91856Y36000D01*
X93500D01*
Y37644D01*
D02*
G37*
G36*
X96144Y35000D02*
X94500D01*
Y33356D01*
X94858Y33428D01*
X95586Y33914D01*
X96072Y34642D01*
X96144Y35000D01*
D02*
G37*
G36*
X158000Y77254D02*
X157468Y77184D01*
X156507Y76786D01*
X155681Y76152D01*
X155047Y75327D01*
X154649Y74365D01*
X154579Y73833D01*
X158000D01*
Y77254D01*
D02*
G37*
G36*
X162421Y72833D02*
X159000D01*
Y69412D01*
X159532Y69482D01*
X160493Y69881D01*
X161319Y70514D01*
X161953Y71340D01*
X162351Y72301D01*
X162421Y72833D01*
D02*
G37*
G36*
X159000Y77254D02*
Y73833D01*
X162421D01*
X162351Y74365D01*
X161953Y75327D01*
X161319Y76152D01*
X160493Y76786D01*
X159532Y77184D01*
X159000Y77254D01*
D02*
G37*
G36*
X158000Y72833D02*
X154579D01*
X154649Y72301D01*
X155047Y71340D01*
X155681Y70514D01*
X156507Y69881D01*
X157468Y69482D01*
X158000Y69412D01*
Y72833D01*
D02*
G37*
G36*
X152144Y61000D02*
X150500D01*
Y59356D01*
X150858Y59428D01*
X151586Y59914D01*
X152072Y60642D01*
X152144Y61000D01*
D02*
G37*
G36*
X149500D02*
X147856D01*
X147928Y60642D01*
X148414Y59914D01*
X149142Y59428D01*
X149500Y59356D01*
Y61000D01*
D02*
G37*
G36*
X150500Y63644D02*
Y62000D01*
X152144D01*
X152072Y62358D01*
X151586Y63086D01*
X150858Y63572D01*
X150500Y63644D01*
D02*
G37*
G36*
X149500D02*
X149142Y63572D01*
X148414Y63086D01*
X147928Y62358D01*
X147856Y62000D01*
X149500D01*
Y63644D01*
D02*
G37*
G36*
X150500Y142000D02*
X148856D01*
X148928Y141642D01*
X149414Y140914D01*
X150142Y140428D01*
X150500Y140356D01*
Y142000D01*
D02*
G37*
G36*
X152953Y203453D02*
X142047D01*
Y192547D01*
X152953D01*
Y203453D01*
D02*
G37*
G36*
X158500Y186500D02*
X157077Y186312D01*
X155750Y185763D01*
X154611Y184889D01*
X153737Y183750D01*
X153188Y182423D01*
X153000Y181000D01*
X153188Y179577D01*
X153737Y178250D01*
X154611Y177111D01*
X155750Y176237D01*
X157077Y175688D01*
X158500Y175500D01*
X159924Y175688D01*
X161250Y176237D01*
X162389Y177111D01*
X163263Y178250D01*
X163812Y179577D01*
X164000Y181000D01*
X163812Y182423D01*
X163263Y183750D01*
X162389Y184889D01*
X161250Y185763D01*
X159924Y186312D01*
X158500Y186500D01*
D02*
G37*
G36*
X162421Y170500D02*
X159000D01*
Y167079D01*
X159532Y167149D01*
X160493Y167547D01*
X161319Y168181D01*
X161953Y169007D01*
X162351Y169968D01*
X162421Y170500D01*
D02*
G37*
G36*
X158000D02*
X154579D01*
X154649Y169968D01*
X155047Y169007D01*
X155681Y168181D01*
X156507Y167547D01*
X157468Y167149D01*
X158000Y167079D01*
Y170500D01*
D02*
G37*
G36*
X159000Y174921D02*
Y171500D01*
X162421D01*
X162351Y172032D01*
X161953Y172993D01*
X161319Y173819D01*
X160493Y174453D01*
X159532Y174851D01*
X159000Y174921D01*
D02*
G37*
G36*
X158000D02*
X157468Y174851D01*
X156507Y174453D01*
X155681Y173819D01*
X155047Y172993D01*
X154649Y172032D01*
X154579Y171500D01*
X158000D01*
Y174921D01*
D02*
G37*
G36*
X142953Y251953D02*
X132047D01*
Y241047D01*
X133228D01*
Y233181D01*
Y227669D01*
X133327D01*
Y221327D01*
Y214634D01*
X134272D01*
Y212525D01*
X134268Y212520D01*
X133895Y211619D01*
X133768Y210653D01*
X133895Y209688D01*
X134268Y208788D01*
X134861Y208015D01*
X135634Y207422D01*
X136534Y207049D01*
X137500Y206922D01*
X138466Y207049D01*
X139366Y207422D01*
X140139Y208015D01*
X140732Y208788D01*
X141105Y209688D01*
X141232Y210653D01*
X141105Y211619D01*
X140732Y212520D01*
X140728Y212525D01*
Y214634D01*
X141673D01*
Y221327D01*
Y227669D01*
X141772D01*
Y233181D01*
Y241047D01*
X142953D01*
Y251953D01*
D02*
G37*
G36*
X162953D02*
X152047D01*
Y241047D01*
X152818D01*
X153228Y240831D01*
Y232681D01*
Y227169D01*
X153327D01*
Y220327D01*
Y213634D01*
X154272D01*
Y212872D01*
X154268Y212866D01*
X153895Y211966D01*
X153768Y211000D01*
X153895Y210034D01*
X154268Y209134D01*
X154861Y208361D01*
X155634Y207768D01*
X156534Y207395D01*
X157500Y207268D01*
X158466Y207395D01*
X159366Y207768D01*
X160139Y208361D01*
X160732Y209134D01*
X161105Y210034D01*
X161232Y211000D01*
X161105Y211966D01*
X160732Y212866D01*
X160728Y212872D01*
Y213634D01*
X161673D01*
Y220327D01*
Y227169D01*
X161772D01*
Y232681D01*
Y240831D01*
X162182Y241047D01*
X162953D01*
Y251953D01*
D02*
G37*
G36*
X150500Y162644D02*
X150142Y162572D01*
X149414Y162086D01*
X148928Y161358D01*
X148856Y161000D01*
X150500D01*
Y162644D01*
D02*
G37*
G36*
X46144Y124000D02*
X44500D01*
Y122356D01*
X44858Y122428D01*
X45586Y122914D01*
X46072Y123642D01*
X46144Y124000D01*
D02*
G37*
G36*
X43500D02*
X41856D01*
X41928Y123642D01*
X42414Y122914D01*
X43142Y122428D01*
X43500Y122356D01*
Y124000D01*
D02*
G37*
G36*
X44500Y126644D02*
Y125000D01*
X46144D01*
X46072Y125358D01*
X45586Y126086D01*
X44858Y126572D01*
X44500Y126644D01*
D02*
G37*
G36*
X43500D02*
X43142Y126572D01*
X42414Y126086D01*
X41928Y125358D01*
X41856Y125000D01*
X43500D01*
Y126644D01*
D02*
G37*
G36*
X111644Y127500D02*
X110000D01*
Y125856D01*
X110358Y125928D01*
X111086Y126414D01*
X111572Y127142D01*
X111644Y127500D01*
D02*
G37*
G36*
X150500Y160000D02*
X148856D01*
X148928Y159642D01*
X149414Y158914D01*
X150142Y158428D01*
X150500Y158356D01*
Y160000D01*
D02*
G37*
G36*
X62421Y152500D02*
X59000D01*
Y149079D01*
X59532Y149149D01*
X60493Y149547D01*
X61319Y150181D01*
X61953Y151007D01*
X62351Y151968D01*
X62421Y152500D01*
D02*
G37*
G36*
X115421Y162500D02*
X112000D01*
Y159079D01*
X112532Y159149D01*
X113493Y159547D01*
X114319Y160181D01*
X114953Y161007D01*
X115351Y161968D01*
X115421Y162500D01*
D02*
G37*
G36*
X111000D02*
X107579D01*
X107649Y161968D01*
X108047Y161007D01*
X108681Y160181D01*
X109507Y159547D01*
X110468Y159149D01*
X111000Y159079D01*
Y162500D01*
D02*
G37*
G36*
X110000Y130144D02*
Y128500D01*
X111644D01*
X111572Y128858D01*
X111086Y129586D01*
X110358Y130072D01*
X110000Y130144D01*
D02*
G37*
G36*
X18421Y131500D02*
X15000D01*
Y128079D01*
X15532Y128149D01*
X16493Y128547D01*
X17319Y129181D01*
X17953Y130007D01*
X18351Y130968D01*
X18421Y131500D01*
D02*
G37*
G36*
X58000Y152500D02*
X54579D01*
X54649Y151968D01*
X55047Y151007D01*
X55681Y150181D01*
X56507Y149547D01*
X57468Y149149D01*
X58000Y149079D01*
Y152500D01*
D02*
G37*
G36*
X115453Y176953D02*
X112000D01*
Y173500D01*
X115453D01*
Y176953D01*
D02*
G37*
G36*
X111000D02*
X107547D01*
Y173500D01*
X111000D01*
Y176953D01*
D02*
G37*
G36*
X111401Y228937D02*
X109327D01*
Y224500D01*
X111401D01*
Y228937D01*
D02*
G37*
G36*
X114476Y223500D02*
X112401D01*
Y219063D01*
X114476D01*
Y223500D01*
D02*
G37*
G36*
X122953Y262453D02*
X112047D01*
Y251547D01*
X122953D01*
Y262453D01*
D02*
G37*
G36*
X114476Y228937D02*
X112401D01*
Y224500D01*
X114476D01*
Y228937D01*
D02*
G37*
G36*
X114500Y217575D02*
X112228D01*
Y215500D01*
X114500D01*
Y217575D01*
D02*
G37*
G36*
X111401Y223500D02*
X109327D01*
Y219063D01*
X111401D01*
Y223500D01*
D02*
G37*
G36*
X117772Y217575D02*
X115500D01*
Y215500D01*
X117772D01*
Y217575D01*
D02*
G37*
G36*
X46144Y97500D02*
X44500D01*
Y95856D01*
X44858Y95928D01*
X45586Y96414D01*
X46072Y97142D01*
X46144Y97500D01*
D02*
G37*
G36*
X44500Y100144D02*
Y98500D01*
X46144D01*
X46072Y98858D01*
X45586Y99586D01*
X44858Y100072D01*
X44500Y100144D01*
D02*
G37*
G36*
X57500Y101831D02*
X55228D01*
Y99756D01*
X57500D01*
Y101831D01*
D02*
G37*
G36*
X64500D02*
X62228D01*
Y99756D01*
X64500D01*
Y101831D01*
D02*
G37*
G36*
X60772D02*
X58500D01*
Y99756D01*
X60772D01*
Y101831D01*
D02*
G37*
G36*
X67772D02*
X65500D01*
Y99756D01*
X67772D01*
Y101831D01*
D02*
G37*
%LPD*%
D10*
X17543Y201413D02*
D03*
Y203972D02*
D03*
Y206532D02*
D03*
Y198854D02*
D03*
Y209090D02*
D03*
D11*
X6500Y208500D02*
D03*
Y199445D02*
D03*
D12*
X45744Y84000D02*
D03*
X51256D02*
D03*
X45744Y74000D02*
D03*
X51256D02*
D03*
X50244Y65500D02*
D03*
X55756D02*
D03*
X107256Y73000D02*
D03*
X101744D02*
D03*
X107256Y66000D02*
D03*
X101744D02*
D03*
X87756Y230500D02*
D03*
X82244D02*
D03*
X122756Y100500D02*
D03*
X117244D02*
D03*
X79244Y41000D02*
D03*
X84756D02*
D03*
X84756Y61500D02*
D03*
X79244D02*
D03*
X67256Y216000D02*
D03*
X61744D02*
D03*
X87244Y121500D02*
D03*
X92756D02*
D03*
X63244Y206000D02*
D03*
X68756D02*
D03*
X87756Y237500D02*
D03*
X82244D02*
D03*
D13*
X61500Y74200D02*
D03*
Y83800D02*
D03*
D14*
X156100Y16000D02*
D03*
X158000D02*
D03*
X160000D02*
D03*
X162000D02*
D03*
X163900D02*
D03*
Y12000D02*
D03*
X162000D02*
D03*
X160000D02*
D03*
X158000D02*
D03*
X156100D02*
D03*
X37100Y235500D02*
D03*
X39000D02*
D03*
X41000D02*
D03*
X43000D02*
D03*
X44900D02*
D03*
Y231500D02*
D03*
X43000D02*
D03*
X41000D02*
D03*
X39000D02*
D03*
X37100D02*
D03*
X8600Y152500D02*
D03*
X10500D02*
D03*
X12500D02*
D03*
X14500D02*
D03*
X16400D02*
D03*
Y148500D02*
D03*
X14500D02*
D03*
X12500D02*
D03*
X10500D02*
D03*
X8600D02*
D03*
D15*
X157500Y217807D02*
D03*
Y224500D02*
D03*
X137500Y218807D02*
D03*
Y225500D02*
D03*
D16*
X157500Y231244D02*
D03*
Y236756D02*
D03*
X137500Y231744D02*
D03*
Y237256D02*
D03*
X79000Y68744D02*
D03*
Y74256D02*
D03*
X65000Y93744D02*
D03*
Y99256D02*
D03*
X92500Y66744D02*
D03*
Y72256D02*
D03*
X58000Y93744D02*
D03*
Y99256D02*
D03*
X115000Y209488D02*
D03*
Y215000D02*
D03*
X104000Y209488D02*
D03*
Y215000D02*
D03*
X124500Y89744D02*
D03*
Y95256D02*
D03*
X117500Y89744D02*
D03*
Y95256D02*
D03*
X102000Y38244D02*
D03*
Y43756D02*
D03*
D17*
X31000Y149100D02*
D03*
Y151000D02*
D03*
Y153000D02*
D03*
Y155000D02*
D03*
Y156900D02*
D03*
X35000D02*
D03*
Y155000D02*
D03*
Y153000D02*
D03*
Y151000D02*
D03*
Y149100D02*
D03*
D18*
X77642Y216968D02*
D03*
Y215000D02*
D03*
Y213032D02*
D03*
Y211063D02*
D03*
Y209095D02*
D03*
X91421D02*
D03*
Y211063D02*
D03*
Y213032D02*
D03*
Y215000D02*
D03*
Y216968D02*
D03*
D19*
X80594Y206142D02*
D03*
X82563D02*
D03*
X84531D02*
D03*
X86500D02*
D03*
X88468D02*
D03*
Y219921D02*
D03*
X86500D02*
D03*
X84531D02*
D03*
X82563D02*
D03*
X80594D02*
D03*
D20*
X84531Y213032D02*
D03*
D21*
X58579Y233984D02*
D03*
X69209Y233984D02*
D03*
D22*
X104000Y224000D02*
D03*
X111902D02*
D03*
D23*
X102000Y55453D02*
D03*
Y49547D02*
D03*
X93000Y188500D02*
D03*
Y194405D02*
D03*
X85500Y188453D02*
D03*
Y194358D02*
D03*
X79043Y194390D02*
D03*
Y188484D02*
D03*
X105000Y188484D02*
D03*
Y194390D02*
D03*
X98000Y194905D02*
D03*
Y189000D02*
D03*
X64815Y188484D02*
D03*
Y194390D02*
D03*
X70500Y194358D02*
D03*
Y188453D02*
D03*
D24*
X85445Y55831D02*
D03*
Y47169D02*
D03*
X78555D02*
D03*
Y55831D02*
D03*
D25*
X92953Y80783D02*
D03*
X90984D02*
D03*
X89016D02*
D03*
X94921D02*
D03*
X96890D02*
D03*
X87047D02*
D03*
X85079D02*
D03*
X83110D02*
D03*
X75236D02*
D03*
X77205D02*
D03*
X79173D02*
D03*
X81142D02*
D03*
X98858D02*
D03*
X100827D02*
D03*
X102795D02*
D03*
X104764D02*
D03*
Y116217D02*
D03*
X102795D02*
D03*
X100827D02*
D03*
X98858D02*
D03*
X96890D02*
D03*
X94921D02*
D03*
X92953D02*
D03*
X90984D02*
D03*
X89016D02*
D03*
X87047D02*
D03*
X85079D02*
D03*
X83110D02*
D03*
X81142D02*
D03*
X79173D02*
D03*
X77205D02*
D03*
X75236D02*
D03*
D26*
X72284Y103421D02*
D03*
Y105390D02*
D03*
Y107358D02*
D03*
Y101453D02*
D03*
Y99484D02*
D03*
Y109327D02*
D03*
Y111295D02*
D03*
Y97516D02*
D03*
Y95547D02*
D03*
Y113264D02*
D03*
Y83736D02*
D03*
Y85705D02*
D03*
Y87673D02*
D03*
Y89642D02*
D03*
Y91610D02*
D03*
Y93579D02*
D03*
X107717Y83736D02*
D03*
Y85705D02*
D03*
Y87673D02*
D03*
Y89642D02*
D03*
Y91610D02*
D03*
Y93579D02*
D03*
Y95547D02*
D03*
Y97516D02*
D03*
Y99484D02*
D03*
Y101453D02*
D03*
Y103421D02*
D03*
Y105390D02*
D03*
Y107358D02*
D03*
Y109327D02*
D03*
Y111295D02*
D03*
Y113264D02*
D03*
D27*
X129744Y90256D02*
X129988Y90500D01*
X124500Y89744D02*
X129744D01*
X17543Y198979D02*
X27284D01*
X107256Y60744D02*
Y66000D01*
Y73000D01*
X92500Y60000D02*
X93000Y59500D01*
X92500Y60000D02*
Y66744D01*
X105000Y182906D02*
Y188484D01*
X64815Y182591D02*
Y188484D01*
X93000Y183193D02*
Y188500D01*
X137500Y210653D02*
Y218807D01*
X35000Y208500D02*
X40500D01*
X45000Y213000D01*
X49000D01*
Y212428D02*
Y213000D01*
X64065Y212428D02*
X67256Y215620D01*
Y216000D01*
X70500D01*
X71500Y215000D01*
X59500Y206000D02*
X63244D01*
X59000Y205500D02*
X59500Y206000D01*
X84531Y219921D02*
Y222031D01*
X89000Y226500D01*
X93500D01*
X101000Y234000D01*
Y239500D01*
X104000Y215000D02*
X115000D01*
X104000Y209488D02*
X115000D01*
X87756Y230500D02*
Y237500D01*
Y243256D01*
X91421Y216968D02*
X94453Y220000D01*
X73610Y221000D02*
X77642Y216968D01*
X74047Y205500D02*
X77642Y209095D01*
X44500Y59756D02*
X50244Y65500D01*
X31000Y153000D02*
X35000D01*
X27500D02*
X31000D01*
X12500Y148500D02*
Y152500D01*
Y158000D01*
X41000Y231500D02*
Y235500D01*
Y240500D01*
X5000Y92000D02*
X12500D01*
X58000Y93744D02*
X65000D01*
X57744Y94000D02*
X58000Y93744D01*
X51500Y94000D02*
X57744D01*
X34882Y218618D02*
Y224882D01*
X37100Y227100D01*
X115000Y209488D02*
X120000D01*
X81000Y121500D02*
X87244D01*
X45744Y68744D02*
Y74000D01*
Y84000D01*
X117500Y89744D02*
X124500D01*
X3000Y171500D02*
X8000Y176500D01*
X29000D01*
X35000Y182500D01*
Y198500D01*
X39500D01*
X41500Y196500D01*
X49000D01*
X30618Y218618D02*
X34882D01*
X26465Y208965D02*
X28500Y211000D01*
Y216500D01*
X30618Y218618D01*
X122756Y100500D02*
X123500Y101244D01*
Y106500D01*
X115000Y215000D02*
X122000D01*
X123900Y213100D01*
Y207473D02*
Y213100D01*
X123500Y207073D02*
X123900Y207473D01*
X123500Y181000D02*
Y207073D01*
X118500Y176000D02*
X123500Y181000D01*
X114500Y176000D02*
X118500D01*
X112000Y173500D02*
X114500Y176000D01*
X67256Y216000D02*
Y216744D01*
X58579Y225421D02*
Y233984D01*
Y225421D02*
X67256Y216744D01*
X47000Y223000D02*
X49685D01*
X56685Y216000D01*
X61744D01*
X129500Y90500D02*
X129988D01*
X129744Y89744D02*
Y90256D01*
X74756Y64500D02*
X79000Y68744D01*
X27284Y198979D02*
X27382Y198882D01*
X17543Y208965D02*
X26465D01*
X49000Y212428D02*
X64065D01*
X160000Y12000D02*
Y16000D01*
Y21000D01*
X157500Y211000D02*
Y217807D01*
X2500Y94500D02*
X5000Y92000D01*
X2500Y94500D02*
Y137000D01*
X3000Y152000D02*
Y171500D01*
Y152000D02*
X6500Y148500D01*
X84756Y59244D02*
Y61500D01*
Y59244D02*
X85500Y58500D01*
Y55886D02*
Y58500D01*
X85445Y55831D02*
X85500Y55886D01*
X82500Y51114D02*
Y52886D01*
X78555Y41689D02*
X79244Y41000D01*
Y36744D02*
Y41000D01*
X82500Y52886D02*
X85445Y55831D01*
X78555Y41689D02*
Y47169D01*
X82500Y51114D01*
D28*
X70205Y85705D02*
X72284D01*
X61500Y83800D02*
X68300D01*
X51256Y84000D02*
X51456Y83800D01*
X61500D01*
X51256Y74000D02*
X51456Y74200D01*
X61500D01*
X67200D01*
X70000Y77000D01*
Y81500D01*
X71736Y83236D01*
X101744Y66000D02*
Y73000D01*
X69209Y233984D02*
X70693Y232500D01*
X73500D01*
X80594Y225406D01*
Y219921D02*
Y225406D01*
X82563Y219921D02*
Y230181D01*
X82244Y230500D02*
X82563Y230181D01*
X82244Y230500D02*
Y237500D01*
X88468Y219921D02*
Y220468D01*
X92000Y224000D02*
X104000D01*
X88468Y220468D02*
X92000Y224000D01*
X91421Y213032D02*
X98469D01*
X100500Y211000D01*
X55756Y64744D02*
Y65500D01*
Y64744D02*
X62000Y58500D01*
Y33000D02*
Y58500D01*
X73563Y211063D02*
X77642D01*
X68756Y206000D02*
Y206256D01*
X70531Y213032D02*
X77642D01*
X58000Y210000D02*
X67500D01*
X68756Y206256D02*
X73563Y211063D01*
X67500Y210000D02*
Y210000D01*
X70374Y212874D01*
X55300Y207300D02*
X58000Y210000D01*
X55300Y203967D02*
Y207300D01*
Y203967D02*
X58267Y201000D01*
X82244Y237500D02*
Y243256D01*
X58267Y201000D02*
X58500D01*
X16000Y97500D02*
X19500Y94000D01*
Y89000D02*
Y94000D01*
X64815Y194390D02*
X70468D01*
X79012Y188453D02*
X79043Y188484D01*
X75000Y188453D02*
Y195905D01*
X70500Y188453D02*
X75000D01*
X79012D01*
X79043Y194390D02*
X85469D01*
X85500Y188453D02*
X88047D01*
X89000Y189406D01*
X90500Y194405D02*
X93000D01*
X89000Y192905D02*
X90500Y194405D01*
X89000Y189406D02*
Y192905D01*
X70468Y194390D02*
Y197968D01*
X88468Y201468D02*
Y206142D01*
X91421Y211063D02*
X95337D01*
X98886Y194390D02*
X105000D01*
X105000Y194390D01*
X91421Y209095D02*
X93906D01*
X96000Y207000D01*
X93000Y194405D02*
Y197500D01*
X96000Y200500D01*
Y207000D01*
X79043Y182957D02*
Y188484D01*
Y182957D02*
X82507Y179493D01*
X94533D01*
X98886Y183846D01*
Y188484D01*
X158500Y53333D02*
X162167D01*
X164000Y151000D02*
X167500Y147500D01*
X115167Y10333D02*
Y14000D01*
Y10333D02*
X117500Y8000D01*
X58000Y99256D02*
X65000D01*
X44900Y231500D02*
X46500D01*
X48000Y233000D01*
X111500Y195500D02*
X116000D01*
X25000Y245437D02*
X44563D01*
X48000Y233000D02*
Y242000D01*
X44563Y245437D02*
X48000Y242000D01*
X44563Y245437D02*
X46626Y247500D01*
X107500D01*
X111000Y244000D01*
Y239500D02*
Y244000D01*
X92756Y121500D02*
X92953Y121303D01*
X65000Y99256D02*
X65228Y99484D01*
X117500Y95256D02*
X124500D01*
X81142Y79142D02*
Y80783D01*
X90984Y78516D02*
Y80783D01*
X90971Y78502D02*
X90984Y78516D01*
X92500Y72256D02*
X92953Y72709D01*
X94921Y79079D02*
Y80783D01*
X23500Y118500D02*
X29000D01*
X43500D01*
X48736Y113264D01*
X4800Y103403D02*
X10656Y97547D01*
X11703D01*
X11750Y97500D01*
X16000D01*
X107717Y85705D02*
X110770D01*
X115000Y14167D02*
Y26500D01*
Y14167D02*
X115167Y14000D01*
X18000D02*
Y26500D01*
X145500Y53000D02*
X158167D01*
X158500Y53333D01*
X146000Y150500D02*
X158000D01*
X158500Y151000D01*
X142000Y150500D02*
X146000D01*
X35000Y155000D02*
X38000D01*
X149500Y44000D02*
X150000D01*
X52500Y225700D02*
Y241400D01*
X56600Y245500D01*
X80000D01*
X82244Y243256D01*
X158500Y151000D02*
X164000D01*
X158500Y151000D02*
X158500Y151000D01*
X52500Y225700D02*
X56200Y222000D01*
X137500Y237256D02*
Y246500D01*
X137500Y246500D01*
Y225500D02*
Y231744D01*
X137500Y231744D02*
X137500Y231744D01*
X157500Y224500D02*
Y231244D01*
X157500Y231244D02*
X157500Y231244D01*
X157500Y248000D02*
X157500Y248000D01*
X157500Y236756D02*
Y246500D01*
X157500Y246500D01*
X35000Y156900D02*
X36900D01*
X35000Y149100D02*
Y149200D01*
X37657Y151000D02*
X42247Y155590D01*
Y155590D01*
X35000Y151000D02*
X37657D01*
X12500Y82000D02*
X14500D01*
X29000D01*
X12500Y112000D02*
X14500D01*
X12500Y102000D02*
X14500D01*
X90971Y76971D02*
Y78502D01*
X89016Y78016D02*
Y80783D01*
X82756Y74256D02*
X83200Y74700D01*
Y74746D01*
X87047Y78593D02*
Y80783D01*
X107717Y83736D02*
X109686D01*
X107717Y87673D02*
X111347D01*
X107717Y89642D02*
X111924D01*
X117466Y84100D02*
X129767D01*
X107717Y97516D02*
X110016D01*
X113000Y100500D02*
X117244D01*
X117209Y95547D02*
X117500Y95256D01*
X95337Y211063D02*
X98886Y207514D01*
X100500Y208446D02*
Y211000D01*
Y208446D02*
X100686Y208260D01*
Y206314D02*
Y208260D01*
Y206314D02*
X111500Y195500D01*
X85469Y194390D02*
Y198468D01*
X88468Y201468D01*
X84531Y202006D02*
Y206142D01*
X58500Y201000D02*
X78000D01*
X80594Y203594D01*
Y206142D01*
X70468Y197968D02*
X71700Y199200D01*
X78746D01*
X82485Y206064D02*
X82563Y206142D01*
X75000Y195905D02*
X76494Y197400D01*
X79926D01*
X78746Y199200D02*
X82485Y202940D01*
Y206064D01*
X79926Y197400D02*
X84531Y202006D01*
X14500Y142560D02*
Y148500D01*
X4800Y103403D02*
Y136300D01*
X10500Y142000D01*
Y148500D01*
X6600Y134660D02*
X14500Y142560D01*
X6600Y107900D02*
Y134660D01*
Y107900D02*
X12500Y102000D01*
X8400Y116100D02*
X12500Y112000D01*
X8400Y116100D02*
Y133914D01*
X16400Y141914D01*
Y148500D01*
X17000Y112000D02*
X23500Y118500D01*
X14500Y112000D02*
X17000D01*
X14500Y102000D02*
X29000D01*
X92500Y72256D02*
X94744D01*
X97000Y70000D01*
X89500Y130000D02*
X99500D01*
X102795Y126705D01*
X76000Y128000D02*
X98000D01*
X100827Y125173D01*
X29000Y102000D02*
X35500D01*
X44795Y111295D01*
X29000Y82000D02*
X34000D01*
X38500Y86500D01*
Y102000D01*
X45827Y109327D01*
X38403Y149200D02*
X46656Y157453D01*
X50344D01*
X50497Y157300D01*
X56503D01*
X56656Y157453D01*
X64047D01*
X68500Y153000D01*
X42247Y155590D02*
X45910Y159253D01*
X72247D01*
X78500Y153000D01*
X36900Y156900D02*
X42500Y162500D01*
X89000D01*
X98500Y153000D01*
X38000Y155000D02*
X43900Y160900D01*
X80600D01*
X88500Y153000D01*
X55756Y65500D02*
X64000D01*
X73000Y77500D02*
X79500D01*
X71500Y76000D02*
X73000Y77500D01*
X71500Y73000D02*
Y76000D01*
X64000Y65500D02*
X71500Y73000D01*
X101744Y55709D02*
X102000Y55453D01*
X101744Y55709D02*
Y60500D01*
Y66000D01*
X73500Y69500D02*
X78256Y74256D01*
X79000D01*
X82756D01*
X98886Y194390D02*
Y207514D01*
X88700Y74700D02*
X90971Y76971D01*
X102795Y116217D02*
Y126705D01*
X110016Y97516D02*
X113000Y100500D01*
X83200Y74746D02*
X87047Y78593D01*
X94921Y79079D02*
X100500Y73500D01*
X104764Y116217D02*
Y128736D01*
X68300Y83800D02*
X70205Y85705D01*
X45827Y109327D02*
X72284D01*
X92953Y72709D02*
Y80783D01*
X65228Y99484D02*
X72284D01*
X92953Y116217D02*
Y121303D01*
X92756Y121500D02*
X97000D01*
X107717Y95547D02*
X117209D01*
X111347Y87673D02*
X116720Y82300D01*
X100827Y116217D02*
Y125173D01*
X48736Y113264D02*
X72284D01*
X109686Y83736D02*
X125800Y67622D01*
X79500Y77500D02*
X81142Y79142D01*
X85000Y74000D02*
X89016Y78016D01*
X44795Y111295D02*
X72284D01*
X111924Y89642D02*
X117466Y84100D01*
X12500Y82000D02*
X19500Y89000D01*
X141500Y53000D02*
X145500D01*
X18000Y9500D02*
Y14000D01*
X117500Y8000D02*
X153500D01*
X156100Y10600D01*
Y12000D01*
X158000Y9393D02*
Y12000D01*
X115000Y26500D02*
Y35500D01*
X125800Y55300D02*
Y67622D01*
X116720Y82300D02*
X127200D01*
X115000Y35500D02*
X128500Y49000D01*
Y67975D01*
X110770Y85705D02*
X128500Y67975D01*
X132000Y62500D02*
X141500Y53000D01*
X132000Y62500D02*
Y77500D01*
X127200Y82300D02*
X132000Y77500D01*
X57500Y54000D02*
X62000Y58500D01*
X30500Y56000D02*
X35500D01*
X37500Y54000D01*
X57500D01*
X18000Y26500D02*
X97000D01*
X125800Y55300D01*
X163900Y12000D02*
X165000D01*
X166000Y13000D01*
Y49500D01*
X162167Y53333D02*
X166000Y49500D01*
X167600Y11100D02*
Y50163D01*
X167500Y50263D02*
X167600Y50163D01*
X167500Y50263D02*
Y147500D01*
X165000Y8500D02*
X167600Y11100D01*
X163500Y8500D02*
X165000D01*
X162000Y10000D02*
X163500Y8500D01*
X162000Y10000D02*
Y12000D01*
X18000Y9500D02*
X21500Y6000D01*
X154607D01*
X158000Y9393D01*
X129767Y84100D02*
X139000Y93333D01*
Y147500D01*
X142000Y150500D01*
X85000Y67500D02*
Y74000D01*
X79244Y61744D02*
X85000Y67500D01*
X79244Y61500D02*
Y61744D01*
Y58744D02*
Y61500D01*
X78500Y58000D02*
X79244Y58744D01*
X78500Y55886D02*
Y58000D01*
Y55886D02*
X78555Y55831D01*
X88700Y50424D02*
Y74700D01*
X84000Y41756D02*
X84756Y41000D01*
X84000Y41756D02*
Y44000D01*
X85445Y45445D02*
Y47169D01*
X84000Y44000D02*
X85445Y45445D01*
Y47169D02*
X88700Y50424D01*
X97000Y40000D02*
Y70000D01*
Y40000D02*
X98756Y38244D01*
X102000D01*
X94000Y35500D02*
X96012D01*
X98756Y38244D01*
X102000Y43756D02*
Y49547D01*
X52500Y117000D02*
Y132100D01*
X68500Y148100D01*
Y153000D01*
X35000Y149200D02*
X38403D01*
X71500Y132500D02*
Y137000D01*
Y132500D02*
X76000Y128000D01*
X71500Y140700D02*
X78500Y147700D01*
Y153000D01*
X71500Y137000D02*
Y140700D01*
X98500Y146600D02*
Y153000D01*
Y146600D02*
X102300Y142800D01*
Y137000D02*
Y142800D01*
X86800Y132700D02*
Y137000D01*
Y132700D02*
X89500Y130000D01*
X102300Y131200D02*
Y137000D01*
Y131200D02*
X104764Y128736D01*
X86800Y137000D02*
Y143300D01*
X88500Y145000D01*
Y153000D01*
X0Y267000D02*
X172000D01*
X0Y0D02*
Y267000D01*
Y0D02*
X172000D01*
Y267000D01*
D29*
X71500Y215000D02*
X77642D01*
X91421D02*
X104000D01*
X37100Y227100D02*
Y231500D01*
X8600Y143100D02*
Y148500D01*
X2500Y137000D02*
X8600Y143100D01*
X6500Y148500D02*
X8600D01*
D30*
X83000Y107000D02*
D03*
X98000D02*
D03*
X83000Y91000D02*
D03*
X97500D02*
D03*
X90500Y99500D02*
D03*
D31*
X18528Y212732D02*
D03*
Y195213D02*
D03*
D32*
X158500Y83333D02*
D03*
Y73333D02*
D03*
Y63333D02*
D03*
Y53333D02*
D03*
X14500Y92000D02*
D03*
Y102000D02*
D03*
Y112000D02*
D03*
Y122000D02*
D03*
Y132000D02*
D03*
X48000Y14000D02*
D03*
X38000D02*
D03*
X28000D02*
D03*
X18000D02*
D03*
X158500Y181000D02*
D03*
Y171000D02*
D03*
Y161000D02*
D03*
Y151000D02*
D03*
X35000Y208500D02*
D03*
Y198500D02*
D03*
X48500Y153000D02*
D03*
X58500D02*
D03*
X68500D02*
D03*
X78500D02*
D03*
X88500D02*
D03*
X111500Y163000D02*
D03*
X111000Y239500D02*
D03*
X145167Y14000D02*
D03*
X135167D02*
D03*
X125167D02*
D03*
X115167D02*
D03*
D33*
X158500Y43333D02*
D03*
X157500Y246500D02*
D03*
X137500D02*
D03*
X146000Y150500D02*
D03*
X145500Y53000D02*
D03*
X14500Y82000D02*
D03*
X158500Y141000D02*
D03*
X35000Y218500D02*
D03*
X111500Y173000D02*
D03*
D34*
X102300Y137000D02*
D03*
X86800D02*
D03*
X71500D02*
D03*
X117500Y257000D02*
D03*
X49000Y213000D02*
D03*
X30500Y56000D02*
D03*
X29000Y118500D02*
D03*
X41000Y256000D02*
D03*
X14000Y56000D02*
D03*
X29000Y102000D02*
D03*
X49000Y196500D02*
D03*
X29000Y82000D02*
D03*
X116000Y195500D02*
D03*
X8000Y14000D02*
D03*
X98500Y153000D02*
D03*
X101000Y239500D02*
D03*
X105167Y14000D02*
D03*
X115000Y26500D02*
D03*
X18000D02*
D03*
X147500Y198000D02*
D03*
D35*
X82563Y215000D02*
D03*
Y211063D02*
D03*
X86500D02*
D03*
Y215000D02*
D03*
D36*
X25000Y245437D02*
D03*
Y237563D02*
D03*
D37*
X62000Y58500D02*
D03*
X44500D02*
D03*
Y33000D02*
D03*
X62000D02*
D03*
D38*
X45744Y68744D02*
D03*
X107256Y60744D02*
D03*
X93000Y59500D02*
D03*
X105000Y182906D02*
D03*
X64815Y182591D02*
D03*
X93000Y183193D02*
D03*
X137500Y210653D02*
D03*
X59000Y205500D02*
D03*
X87756Y243256D02*
D03*
X94453Y220000D02*
D03*
X73610Y221000D02*
D03*
X74047Y205500D02*
D03*
X82244Y243256D02*
D03*
X58500Y201000D02*
D03*
X27500Y153000D02*
D03*
X12500Y158000D02*
D03*
X41000Y240500D02*
D03*
X51500Y94000D02*
D03*
X120000Y209488D02*
D03*
X81000Y121500D02*
D03*
X74756Y64500D02*
D03*
X27382Y198882D02*
D03*
X52500Y117000D02*
D03*
X123500Y106500D02*
D03*
X150000Y44000D02*
D03*
X151000Y142500D02*
D03*
Y160500D02*
D03*
X56200Y222000D02*
D03*
X47000Y223000D02*
D03*
X129500Y90500D02*
D03*
X97000Y121500D02*
D03*
X44000Y124500D02*
D03*
Y98000D02*
D03*
X73500Y69500D02*
D03*
X101744Y60500D02*
D03*
X160000Y21000D02*
D03*
X157500Y211000D02*
D03*
X105500Y22000D02*
D03*
X124000D02*
D03*
X150000Y61500D02*
D03*
X94000Y35500D02*
D03*
X94072Y19642D02*
D03*
X109500Y128000D02*
D03*
X79244Y36744D02*
D03*
M02*
