G04 Layer_Color=8421504*
%FSLAX25Y25*%
%MOIN*%
G70*
G01*
G75*
%ADD10R,0.05315X0.01575*%
%ADD11R,0.07480X0.07087*%
%ADD12R,0.03150X0.03543*%
%ADD13R,0.07500X0.04300*%
%ADD14R,0.01000X0.02800*%
%ADD15R,0.03347X0.03347*%
%ADD16R,0.03543X0.03150*%
%ADD17R,0.02800X0.01000*%
%ADD18O,0.03347X0.01181*%
%ADD19O,0.01181X0.03347*%
%ADD20R,0.08465X0.08465*%
%ADD21R,0.06299X0.16929*%
%ADD22R,0.03150X0.07874*%
%ADD23R,0.03543X0.02756*%
%ADD24R,0.01929X0.02244*%
%ADD25R,0.00984X0.02362*%
%ADD26R,0.02362X0.00984*%
%ADD28C,0.01000*%
G36*
X9728Y222897D02*
X10060Y222565D01*
X10240Y222131D01*
Y221896D01*
Y214474D01*
X2760D01*
Y221108D01*
Y221500D01*
X3060Y222223D01*
X3613Y222777D01*
X4337Y223077D01*
X9294D01*
X9728Y222897D01*
D02*
G37*
G36*
X83941Y213623D02*
X80703D01*
Y216850D01*
X83941D01*
Y213623D01*
D02*
G37*
G36*
X88350Y213623D02*
X85123D01*
Y216850D01*
X88350D01*
Y213623D01*
D02*
G37*
G36*
Y209212D02*
X85122D01*
Y212441D01*
X88350D01*
Y209212D01*
D02*
G37*
G36*
X83941Y209209D02*
X80709D01*
Y212441D01*
X83941D01*
Y209209D01*
D02*
G37*
G36*
X10240Y186049D02*
Y185814D01*
X10060Y185380D01*
X9728Y185048D01*
X9294Y184868D01*
X4337D01*
X3613Y185168D01*
X3060Y185722D01*
X2760Y186445D01*
Y186837D01*
Y193471D01*
X10240D01*
Y186049D01*
D02*
G37*
D10*
X17543Y201413D02*
D03*
Y203972D02*
D03*
Y206532D02*
D03*
Y198854D02*
D03*
Y209090D02*
D03*
D11*
X6500Y208500D02*
D03*
Y199445D02*
D03*
D12*
X45744Y84000D02*
D03*
X51256D02*
D03*
X45744Y74000D02*
D03*
X51256D02*
D03*
X50244Y65500D02*
D03*
X55756D02*
D03*
X107256Y73000D02*
D03*
X101744D02*
D03*
X107256Y66000D02*
D03*
X101744D02*
D03*
X87756Y230500D02*
D03*
X82244D02*
D03*
X122756Y100500D02*
D03*
X117244D02*
D03*
X79244Y41000D02*
D03*
X84756D02*
D03*
X84756Y61500D02*
D03*
X79244D02*
D03*
X67256Y216000D02*
D03*
X61744D02*
D03*
X87244Y121500D02*
D03*
X92756D02*
D03*
X63244Y206000D02*
D03*
X68756D02*
D03*
X87756Y237500D02*
D03*
X82244D02*
D03*
D13*
X61500Y74200D02*
D03*
Y83800D02*
D03*
D14*
X156100Y16000D02*
D03*
X158000D02*
D03*
X160000D02*
D03*
X162000D02*
D03*
X163900D02*
D03*
Y12000D02*
D03*
X162000D02*
D03*
X160000D02*
D03*
X158000D02*
D03*
X156100D02*
D03*
X37100Y235500D02*
D03*
X39000D02*
D03*
X41000D02*
D03*
X43000D02*
D03*
X44900D02*
D03*
Y231500D02*
D03*
X43000D02*
D03*
X41000D02*
D03*
X39000D02*
D03*
X37100D02*
D03*
X8600Y152500D02*
D03*
X10500D02*
D03*
X12500D02*
D03*
X14500D02*
D03*
X16400D02*
D03*
Y148500D02*
D03*
X14500D02*
D03*
X12500D02*
D03*
X10500D02*
D03*
X8600D02*
D03*
D15*
X157500Y217807D02*
D03*
Y224500D02*
D03*
X137500Y218807D02*
D03*
Y225500D02*
D03*
D16*
X157500Y231244D02*
D03*
Y236756D02*
D03*
X137500Y231744D02*
D03*
Y237256D02*
D03*
X79000Y68744D02*
D03*
Y74256D02*
D03*
X65000Y93744D02*
D03*
Y99256D02*
D03*
X92500Y66744D02*
D03*
Y72256D02*
D03*
X58000Y93744D02*
D03*
Y99256D02*
D03*
X115000Y209488D02*
D03*
Y215000D02*
D03*
X104000Y209488D02*
D03*
Y215000D02*
D03*
X124500Y89744D02*
D03*
Y95256D02*
D03*
X117500Y89744D02*
D03*
Y95256D02*
D03*
X102000Y38244D02*
D03*
Y43756D02*
D03*
D17*
X31000Y149100D02*
D03*
Y151000D02*
D03*
Y153000D02*
D03*
Y155000D02*
D03*
Y156900D02*
D03*
X35000D02*
D03*
Y155000D02*
D03*
Y153000D02*
D03*
Y151000D02*
D03*
Y149100D02*
D03*
D18*
X77642Y216968D02*
D03*
Y215000D02*
D03*
Y213032D02*
D03*
Y211063D02*
D03*
Y209095D02*
D03*
X91421D02*
D03*
Y211063D02*
D03*
Y213032D02*
D03*
Y215000D02*
D03*
Y216968D02*
D03*
D19*
X80594Y206142D02*
D03*
X82563D02*
D03*
X84531D02*
D03*
X86500D02*
D03*
X88468D02*
D03*
Y219921D02*
D03*
X86500D02*
D03*
X84531D02*
D03*
X82563D02*
D03*
X80594D02*
D03*
D20*
X84531Y213032D02*
D03*
D21*
X58579Y233984D02*
D03*
X69209Y233984D02*
D03*
D22*
X104000Y224000D02*
D03*
X111902D02*
D03*
D23*
X102000Y55453D02*
D03*
Y49547D02*
D03*
X93000Y188500D02*
D03*
Y194405D02*
D03*
X85500Y188453D02*
D03*
Y194358D02*
D03*
X79043Y194390D02*
D03*
Y188484D02*
D03*
X105000Y188484D02*
D03*
Y194390D02*
D03*
X98000Y194905D02*
D03*
Y189000D02*
D03*
X64815Y188484D02*
D03*
Y194390D02*
D03*
X70500Y194358D02*
D03*
Y188453D02*
D03*
D24*
X85445Y55831D02*
D03*
Y47169D02*
D03*
X78555D02*
D03*
Y55831D02*
D03*
D25*
X92953Y80783D02*
D03*
X90984D02*
D03*
X89016D02*
D03*
X94921D02*
D03*
X96890D02*
D03*
X87047D02*
D03*
X85079D02*
D03*
X83110D02*
D03*
X75236D02*
D03*
X77205D02*
D03*
X79173D02*
D03*
X81142D02*
D03*
X98858D02*
D03*
X100827D02*
D03*
X102795D02*
D03*
X104764D02*
D03*
Y116217D02*
D03*
X102795D02*
D03*
X100827D02*
D03*
X98858D02*
D03*
X96890D02*
D03*
X94921D02*
D03*
X92953D02*
D03*
X90984D02*
D03*
X89016D02*
D03*
X87047D02*
D03*
X85079D02*
D03*
X83110D02*
D03*
X81142D02*
D03*
X79173D02*
D03*
X77205D02*
D03*
X75236D02*
D03*
D26*
X72284Y103421D02*
D03*
Y105390D02*
D03*
Y107358D02*
D03*
Y101453D02*
D03*
Y99484D02*
D03*
Y109327D02*
D03*
Y111295D02*
D03*
Y97516D02*
D03*
Y95547D02*
D03*
Y113264D02*
D03*
Y83736D02*
D03*
Y85705D02*
D03*
Y87673D02*
D03*
Y89642D02*
D03*
Y91610D02*
D03*
Y93579D02*
D03*
X107717Y83736D02*
D03*
Y85705D02*
D03*
Y87673D02*
D03*
Y89642D02*
D03*
Y91610D02*
D03*
Y93579D02*
D03*
Y95547D02*
D03*
Y97516D02*
D03*
Y99484D02*
D03*
Y101453D02*
D03*
Y103421D02*
D03*
Y105390D02*
D03*
Y107358D02*
D03*
Y109327D02*
D03*
Y111295D02*
D03*
Y113264D02*
D03*
D28*
X0Y267000D02*
X172000D01*
X0Y0D02*
Y267000D01*
Y0D02*
X172000D01*
Y267000D01*
M02*
