G04 Layer_Color=32896*
%FSLAX25Y25*%
%MOIN*%
G70*
G01*
G75*
%ADD28C,0.01000*%
%ADD41C,0.00000*%
%ADD80C,0.00354*%
D28*
X0Y267000D02*
X172000D01*
X0Y0D02*
Y267000D01*
Y0D02*
X172000D01*
Y267000D01*
D41*
X154900Y12800D02*
G03*
X154900Y15200I0J1200D01*
G01*
Y12800D02*
G03*
X154900Y15200I0J1200D01*
G01*
X35900Y232300D02*
G03*
X35900Y234700I0J1200D01*
G01*
Y232300D02*
G03*
X35900Y234700I0J1200D01*
G01*
X34200Y147900D02*
G03*
X31800Y147900I-1200J0D01*
G01*
X34200D02*
G03*
X31800Y147900I-1200J0D01*
G01*
X7400Y149300D02*
G03*
X7400Y151700I0J1200D01*
G01*
Y149300D02*
G03*
X7400Y151700I0J1200D01*
G01*
X154900Y11800D02*
X165100D01*
X154900D02*
Y12800D01*
Y15200D01*
Y16200D01*
X165100D01*
Y11800D02*
Y16200D01*
X154900Y11800D02*
X165100D01*
X154900D02*
Y12800D01*
Y15200D01*
Y16200D01*
X165100D01*
Y11800D02*
Y16200D01*
X35900Y231300D02*
X46100D01*
X35900D02*
Y232300D01*
Y234700D01*
Y235700D01*
X46100D01*
Y231300D02*
Y235700D01*
X35900Y231300D02*
X46100D01*
X35900D02*
Y232300D01*
Y234700D01*
Y235700D01*
X46100D01*
Y231300D02*
Y235700D01*
X35200Y147900D02*
Y158100D01*
X34200Y147900D02*
X35200D01*
X31800D02*
X34200D01*
X30800D02*
X31800D01*
X30800D02*
Y158100D01*
X35200D01*
Y147900D02*
Y158100D01*
X34200Y147900D02*
X35200D01*
X31800D02*
X34200D01*
X30800D02*
X31800D01*
X30800D02*
Y158100D01*
X35200D01*
X7400Y148300D02*
X17600D01*
X7400D02*
Y149300D01*
Y151700D01*
Y152700D01*
X17600D01*
Y148300D02*
Y152700D01*
X7400Y148300D02*
X17600D01*
X7400D02*
Y149300D01*
Y151700D01*
Y152700D01*
X17600D01*
Y148300D02*
Y152700D01*
D80*
X77236Y112083D02*
G03*
X77236Y112083I-787J0D01*
G01*
D02*
G03*
X77236Y112083I-787J0D01*
G01*
X72315Y80783D02*
X107748D01*
Y116217D01*
X72315D02*
X107748D01*
X72315Y80783D02*
Y116217D01*
Y80783D02*
X107748D01*
Y116217D01*
X72315D02*
X107748D01*
X72315Y80783D02*
Y116217D01*
M02*
