G04 Layer_Color=16711935*
%FSLAX25Y25*%
%MOIN*%
G70*
G01*
G75*
%ADD28C,0.01000*%
%ADD42C,0.00500*%
%ADD46C,0.00600*%
%ADD47C,0.00200*%
%ADD77C,0.00394*%
%ADD78C,0.00400*%
%ADD79C,0.00197*%
G36*
X158681Y220367D02*
X156317D01*
Y221942D01*
X158681D01*
Y220367D01*
D02*
G37*
G36*
X139390Y218885D02*
X135648D01*
Y220852D01*
X139390D01*
Y218885D01*
D02*
G37*
G36*
X159390Y217885D02*
X155648D01*
Y219852D01*
X159390D01*
Y217885D01*
D02*
G37*
G36*
X139390Y223485D02*
X135650D01*
Y225454D01*
X139390D01*
Y223485D01*
D02*
G37*
G36*
X159390Y222485D02*
X155650D01*
Y224454D01*
X159390D01*
Y222485D01*
D02*
G37*
G36*
X138681Y221367D02*
X136317D01*
Y222942D01*
X138681D01*
Y221367D01*
D02*
G37*
D28*
X0Y267000D02*
X172000D01*
X0Y0D02*
Y267000D01*
Y0D02*
X172000D01*
Y267000D01*
D42*
X85500Y47000D02*
Y56000D01*
X78500Y47000D02*
X85500D01*
X78500D02*
Y56000D01*
X85500D01*
D46*
X31299Y229689D02*
Y253311D01*
D47*
X153630Y226953D02*
X161370D01*
X153630Y215354D02*
Y226953D01*
Y215354D02*
X161370D01*
Y226953D01*
X133630Y227953D02*
X141370D01*
X133630Y216354D02*
Y227953D01*
Y216354D02*
X141370D01*
Y227953D01*
D77*
X1264Y189406D02*
Y218539D01*
D78*
X155850Y219752D02*
Y222555D01*
X159201Y219752D02*
Y222555D01*
X135850Y220752D02*
Y223555D01*
X139201Y220752D02*
Y223555D01*
D79*
X87000Y45500D02*
Y57500D01*
X77000Y45500D02*
X87000D01*
X77000D02*
Y57500D01*
X87000D01*
M02*
